<svg width="518" height="27" viewBox="0 0 518 27" fill="none" xmlns="http://www.w3.org/2000/svg">
<line y1="13" x2="165.5" y2="13" stroke="#B3B3B3"/>
<path d="M192.781 20.18C191.893 20.18 191.071 20.018 190.315 19.694C189.571 19.37 188.917 18.92 188.353 18.344C187.801 17.756 187.369 17.072 187.057 16.292C186.757 15.5 186.607 14.636 186.607 13.7C186.607 12.764 186.757 11.906 187.057 11.126C187.369 10.334 187.801 9.65 188.353 9.074C188.917 8.486 189.571 8.03 190.315 7.706C191.071 7.382 191.893 7.22 192.781 7.22C193.669 7.22 194.485 7.382 195.229 7.706C195.985 8.03 196.639 8.486 197.191 9.074C197.755 9.662 198.187 10.352 198.487 11.144C198.799 11.924 198.955 12.776 198.955 13.7C198.955 14.624 198.799 15.482 198.487 16.274C198.187 17.054 197.755 17.738 197.191 18.326C196.639 18.914 195.985 19.37 195.229 19.694C194.485 20.018 193.669 20.18 192.781 20.18ZM192.781 18.29C193.393 18.29 193.951 18.176 194.455 17.948C194.971 17.72 195.415 17.402 195.787 16.994C196.159 16.574 196.447 16.088 196.651 15.536C196.867 14.972 196.975 14.36 196.975 13.7C196.975 13.04 196.867 12.434 196.651 11.882C196.447 11.318 196.159 10.832 195.787 10.424C195.415 10.004 194.971 9.68 194.455 9.452C193.951 9.224 193.393 9.11 192.781 9.11C192.169 9.11 191.605 9.224 191.089 9.452C190.585 9.68 190.141 9.998 189.757 10.406C189.385 10.814 189.097 11.3 188.893 11.864C188.689 12.416 188.587 13.028 188.587 13.7C188.587 14.36 188.689 14.972 188.893 15.536C189.097 16.1 189.385 16.586 189.757 16.994C190.141 17.402 190.585 17.72 191.089 17.948C191.605 18.176 192.169 18.29 192.781 18.29ZM201.119 20V10.55H202.991V13.52L202.811 12.8C202.943 12.344 203.165 11.93 203.477 11.558C203.801 11.186 204.167 10.892 204.575 10.676C204.995 10.46 205.427 10.352 205.871 10.352C206.075 10.352 206.267 10.37 206.447 10.406C206.639 10.442 206.789 10.484 206.897 10.532L206.411 12.548C206.267 12.488 206.105 12.44 205.925 12.404C205.757 12.356 205.589 12.332 205.421 12.332C205.097 12.332 204.785 12.398 204.485 12.53C204.197 12.65 203.939 12.824 203.711 13.052C203.495 13.268 203.321 13.526 203.189 13.826C203.057 14.114 202.991 14.432 202.991 14.78V20H201.119ZM219.004 20.18C218.128 20.18 217.324 20.024 216.592 19.712C215.86 19.4 215.224 18.956 214.684 18.38C214.144 17.792 213.724 17.102 213.424 16.31C213.136 15.518 212.992 14.648 212.992 13.7C212.992 12.8 213.148 11.966 213.46 11.198C213.784 10.418 214.228 9.734 214.792 9.146C215.356 8.558 216.01 8.102 216.754 7.778C217.498 7.454 218.302 7.292 219.166 7.292C219.778 7.292 220.372 7.388 220.948 7.58C221.536 7.76 222.064 8.018 222.532 8.354C223.012 8.678 223.402 9.05 223.702 9.47L222.406 10.82C222.058 10.472 221.704 10.184 221.344 9.956C220.996 9.716 220.636 9.536 220.264 9.416C219.904 9.296 219.538 9.236 219.166 9.236C218.578 9.236 218.026 9.35 217.51 9.578C217.006 9.794 216.562 10.1 216.178 10.496C215.806 10.892 215.512 11.366 215.296 11.918C215.08 12.458 214.972 13.052 214.972 13.7C214.972 14.384 215.074 15.008 215.278 15.572C215.494 16.124 215.794 16.598 216.178 16.994C216.562 17.39 217.018 17.696 217.546 17.912C218.086 18.116 218.68 18.218 219.328 18.218C219.724 18.218 220.114 18.164 220.498 18.056C220.882 17.948 221.242 17.792 221.578 17.588C221.914 17.384 222.22 17.144 222.496 16.868L223.468 18.452C223.192 18.776 222.814 19.07 222.334 19.334C221.866 19.598 221.338 19.808 220.75 19.964C220.174 20.108 219.592 20.18 219.004 20.18ZM229.889 20.18C228.965 20.18 228.137 19.97 227.405 19.55C226.685 19.118 226.115 18.536 225.695 17.804C225.275 17.06 225.065 16.214 225.065 15.266C225.065 14.318 225.275 13.478 225.695 12.746C226.115 12.002 226.685 11.42 227.405 11C228.137 10.568 228.965 10.352 229.889 10.352C230.801 10.352 231.617 10.568 232.337 11C233.069 11.42 233.645 12.002 234.065 12.746C234.485 13.478 234.695 14.318 234.695 15.266C234.695 16.214 234.485 17.06 234.065 17.804C233.645 18.536 233.069 19.118 232.337 19.55C231.617 19.97 230.801 20.18 229.889 20.18ZM229.889 18.488C230.453 18.488 230.957 18.35 231.401 18.074C231.845 17.786 232.193 17.402 232.445 16.922C232.697 16.43 232.817 15.878 232.805 15.266C232.817 14.642 232.697 14.09 232.445 13.61C232.193 13.118 231.845 12.734 231.401 12.458C230.957 12.182 230.453 12.044 229.889 12.044C229.325 12.044 228.815 12.188 228.359 12.476C227.915 12.752 227.567 13.136 227.315 13.628C227.063 14.108 226.943 14.654 226.955 15.266C226.943 15.878 227.063 16.43 227.315 16.922C227.567 17.402 227.915 17.786 228.359 18.074C228.815 18.35 229.325 18.488 229.889 18.488ZM236.715 20V10.55H238.569V12.494L238.245 12.71C238.365 12.29 238.599 11.906 238.947 11.558C239.295 11.198 239.709 10.91 240.189 10.694C240.669 10.466 241.161 10.352 241.665 10.352C242.385 10.352 242.985 10.496 243.465 10.784C243.945 11.06 244.305 11.486 244.545 12.062C244.785 12.638 244.905 13.364 244.905 14.24V20H243.051V14.366C243.051 13.826 242.979 13.382 242.835 13.034C242.691 12.674 242.469 12.416 242.169 12.26C241.869 12.092 241.497 12.02 241.053 12.044C240.693 12.044 240.363 12.104 240.063 12.224C239.763 12.332 239.499 12.488 239.271 12.692C239.055 12.896 238.881 13.136 238.749 13.412C238.629 13.676 238.569 13.964 238.569 14.276V20H237.651C237.495 20 237.339 20 237.183 20C237.027 20 236.871 20 236.715 20ZM248.59 20V8.138H250.444V20H248.59ZM246.628 12.35V10.55H252.64V12.35H246.628ZM254.634 20V10.55H256.488V20H254.634ZM255.534 8.462C255.138 8.462 254.832 8.36 254.616 8.156C254.4 7.952 254.292 7.664 254.292 7.292C254.292 6.944 254.4 6.662 254.616 6.446C254.844 6.23 255.15 6.122 255.534 6.122C255.93 6.122 256.236 6.224 256.452 6.428C256.668 6.632 256.776 6.92 256.776 7.292C256.776 7.64 256.662 7.922 256.434 8.138C256.218 8.354 255.918 8.462 255.534 8.462ZM259.338 20V10.55H261.192V12.494L260.868 12.71C260.988 12.29 261.222 11.906 261.57 11.558C261.918 11.198 262.332 10.91 262.812 10.694C263.292 10.466 263.784 10.352 264.288 10.352C265.008 10.352 265.608 10.496 266.088 10.784C266.568 11.06 266.928 11.486 267.168 12.062C267.408 12.638 267.528 13.364 267.528 14.24V20H265.674V14.366C265.674 13.826 265.602 13.382 265.458 13.034C265.314 12.674 265.092 12.416 264.792 12.26C264.492 12.092 264.12 12.02 263.676 12.044C263.316 12.044 262.986 12.104 262.686 12.224C262.386 12.332 262.122 12.488 261.894 12.692C261.678 12.896 261.504 13.136 261.372 13.412C261.252 13.676 261.192 13.964 261.192 14.276V20H260.274C260.118 20 259.962 20 259.806 20C259.65 20 259.494 20 259.338 20ZM273.355 20.18C272.683 20.18 272.095 20.024 271.591 19.712C271.099 19.4 270.715 18.962 270.439 18.398C270.175 17.834 270.043 17.162 270.043 16.382V10.55H271.897V15.878C271.897 16.43 271.981 16.91 272.149 17.318C272.329 17.714 272.581 18.02 272.905 18.236C273.241 18.452 273.643 18.56 274.111 18.56C274.459 18.56 274.777 18.506 275.065 18.398C275.353 18.278 275.599 18.116 275.803 17.912C276.019 17.708 276.187 17.462 276.307 17.174C276.427 16.886 276.487 16.574 276.487 16.238V10.55H278.341V20H276.487V18.02L276.811 17.804C276.667 18.248 276.421 18.65 276.073 19.01C275.737 19.37 275.335 19.658 274.867 19.874C274.399 20.078 273.895 20.18 273.355 20.18ZM285.352 20.18C284.38 20.18 283.516 19.976 282.76 19.568C282.016 19.148 281.428 18.578 280.996 17.858C280.576 17.138 280.366 16.31 280.366 15.374C280.366 14.63 280.486 13.952 280.726 13.34C280.966 12.728 281.296 12.2 281.716 11.756C282.148 11.3 282.658 10.952 283.246 10.712C283.846 10.46 284.494 10.334 285.19 10.334C285.802 10.334 286.372 10.454 286.9 10.694C287.428 10.922 287.884 11.24 288.268 11.648C288.664 12.056 288.964 12.542 289.168 13.106C289.384 13.658 289.486 14.264 289.474 14.924L289.456 15.716H281.734L281.32 14.24H287.854L287.584 14.546V14.114C287.548 13.718 287.416 13.364 287.188 13.052C286.96 12.74 286.672 12.494 286.324 12.314C285.976 12.134 285.598 12.044 285.19 12.044C284.542 12.044 283.996 12.17 283.552 12.422C283.108 12.662 282.772 13.022 282.544 13.502C282.316 13.97 282.202 14.552 282.202 15.248C282.202 15.908 282.34 16.484 282.616 16.976C282.892 17.456 283.282 17.828 283.786 18.092C284.29 18.356 284.872 18.488 285.532 18.488C286 18.488 286.432 18.41 286.828 18.254C287.236 18.098 287.674 17.816 288.142 17.408L289.078 18.722C288.79 19.01 288.436 19.262 288.016 19.478C287.608 19.694 287.17 19.868 286.702 20C286.246 20.12 285.796 20.18 285.352 20.18ZM298.855 20L295.633 10.55L297.505 10.532L299.809 17.606L299.395 17.57L301.897 12.044H303.013L305.533 17.588L305.047 17.624L307.369 10.55H309.241L306.055 20H304.777L302.149 13.988L302.563 14.042L300.115 20H298.855ZM311.236 20V10.55H313.09V20H311.236ZM312.136 8.462C311.74 8.462 311.434 8.36 311.218 8.156C311.002 7.952 310.894 7.664 310.894 7.292C310.894 6.944 311.002 6.662 311.218 6.446C311.446 6.23 311.752 6.122 312.136 6.122C312.532 6.122 312.838 6.224 313.054 6.428C313.27 6.632 313.378 6.92 313.378 7.292C313.378 7.64 313.264 7.922 313.036 8.138C312.82 8.354 312.52 8.462 312.136 8.462ZM317.11 20V8.138H318.964V20H317.11ZM315.148 12.35V10.55H321.16V12.35H315.148ZM322.848 20V6.68H324.702V12.494L324.378 12.71C324.498 12.29 324.732 11.906 325.08 11.558C325.428 11.198 325.842 10.91 326.322 10.694C326.802 10.466 327.294 10.352 327.798 10.352C328.518 10.352 329.118 10.496 329.598 10.784C330.078 11.06 330.438 11.486 330.678 12.062C330.918 12.638 331.038 13.364 331.038 14.24V20H329.184V14.366C329.184 13.826 329.112 13.382 328.968 13.034C328.824 12.674 328.602 12.416 328.302 12.26C328.002 12.092 327.63 12.02 327.186 12.044C326.826 12.044 326.496 12.104 326.196 12.224C325.896 12.332 325.632 12.488 325.404 12.692C325.188 12.896 325.014 13.136 324.882 13.412C324.762 13.676 324.702 13.964 324.702 14.276V20H323.784C323.628 20 323.472 20 323.316 20C323.16 20 323.004 20 322.848 20Z" fill="#B3B3B3"/>
<line x1="352.5" y1="13" x2="518" y2="13" stroke="#B3B3B3"/>
</svg>
