<svg width="99" height="98" viewBox="0 0 99 98" fill="none" xmlns="http://www.w3.org/2000/svg">
<rect x="0.5" width="98" height="98" rx="49" fill="url(#paint0_linear_205_5)" fill-opacity="0.05"/>
<rect x="12.5" y="12" width="74" height="74" rx="37" fill="url(#paint1_linear_205_5)" fill-opacity="0.1"/>
<rect x="13" y="12.5" width="73" height="73" rx="36.5" stroke="url(#paint2_linear_205_5)" stroke-opacity="0.2"/>
<path d="M49.5 42.625C47.7396 42.625 46.3125 44.0521 46.3125 45.8125C46.3125 47.5729 47.7396 49 49.5 49C51.2604 49 52.6875 47.5729 52.6875 45.8125C52.6875 44.0521 51.2604 42.625 49.5 42.625Z" fill="#CAFF33"/>
<path fill-rule="evenodd" clip-rule="evenodd" d="M34.625 38.9062C34.625 37.4392 35.8142 36.25 37.2812 36.25H61.7188C63.1858 36.25 64.375 37.4392 64.375 38.9062V52.7188C64.375 54.1858 63.1858 55.375 61.7188 55.375H37.2812C35.8142 55.375 34.625 54.1858 34.625 52.7188V38.9062ZM44.1875 45.8125C44.1875 42.8785 46.566 40.5 49.5 40.5C52.434 40.5 54.8125 42.8785 54.8125 45.8125C54.8125 48.7465 52.434 51.125 49.5 51.125C46.566 51.125 44.1875 48.7465 44.1875 45.8125ZM59.0625 44.75C58.4757 44.75 58 45.2257 58 45.8125V45.8231C58 46.4099 58.4757 46.8856 59.0625 46.8856H59.0731C59.6599 46.8856 60.1356 46.4099 60.1356 45.8231V45.8125C60.1356 45.2257 59.6599 44.75 59.0731 44.75H59.0625ZM38.875 45.8125C38.875 45.2257 39.3507 44.75 39.9375 44.75H39.9481C40.5349 44.75 41.0106 45.2257 41.0106 45.8125V45.8231C41.0106 46.4099 40.5349 46.8856 39.9481 46.8856H39.9375C39.3507 46.8856 38.875 46.4099 38.875 45.8231V45.8125Z" fill="#CAFF33"/>
<path d="M35.6875 57.5C35.1007 57.5 34.625 57.9757 34.625 58.5625C34.625 59.1493 35.1007 59.625 35.6875 59.625C43.3376 59.625 50.747 60.6481 57.7872 62.5644C59.4738 63.0235 61.1875 61.7738 61.1875 59.9864V58.5625C61.1875 57.9757 60.7118 57.5 60.125 57.5H35.6875Z" fill="#CAFF33"/>
<defs>
<linearGradient id="paint0_linear_205_5" x1="49.5" y1="0" x2="49.5" y2="98" gradientUnits="userSpaceOnUse">
<stop stop-color="#CAFF33"/>
<stop offset="1" stop-color="#CAFF33" stop-opacity="0"/>
</linearGradient>
<linearGradient id="paint1_linear_205_5" x1="49.5" y1="-37" x2="49.5" y2="203" gradientUnits="userSpaceOnUse">
<stop stop-color="#CAFF33"/>
<stop offset="0.467671" stop-color="#CAFF33" stop-opacity="0"/>
</linearGradient>
<linearGradient id="paint2_linear_205_5" x1="49.5" y1="-116.5" x2="49.5" y2="153" gradientUnits="userSpaceOnUse">
<stop stop-color="#CAFF33"/>
<stop offset="0.716291" stop-color="#CAFF33" stop-opacity="0"/>
</linearGradient>
</defs>
</svg>
