<svg width="99" height="98" viewBox="0 0 99 98" fill="none" xmlns="http://www.w3.org/2000/svg">
<rect x="0.5" width="98" height="98" rx="49" fill="url(#paint0_linear_11_86875)" fill-opacity="0.05"/>
<rect x="12.5" y="12" width="74" height="74" rx="37" fill="url(#paint1_linear_11_86875)" fill-opacity="0.1"/>
<rect x="13" y="12.5" width="73" height="73" rx="36.5" stroke="url(#paint2_linear_11_86875)" stroke-opacity="0.2"/>
<path d="M38.2812 40.25C36.8142 40.25 35.625 41.4392 35.625 42.9062V43.9688C35.625 45.4358 36.8142 46.625 38.2812 46.625H62.7188C64.1858 46.625 65.375 45.4358 65.375 43.9688V42.9062C65.375 41.4392 64.1858 40.25 62.7188 40.25H38.2812Z" fill="#CAFF33"/>
<path fill-rule="evenodd" clip-rule="evenodd" d="M37.873 48.75L38.6376 61.7496C38.7698 63.996 40.63 65.75 42.8803 65.75H58.1193C60.3696 65.75 62.2298 63.996 62.3619 61.7496L63.1266 48.75H37.873ZM50.5 50.875C51.0868 50.875 51.5625 51.3507 51.5625 51.9375V58.9349L53.9987 56.4987C54.4136 56.0838 55.0864 56.0838 55.5013 56.4987C55.9162 56.9136 55.9162 57.5864 55.5013 58.0013L51.2513 62.2513C50.8364 62.6662 49.8524 62.6662 49.4375 62.2513L45.4987 58.0013C45.0838 57.5864 45.0838 56.9136 45.4987 56.4987C45.9136 56.0838 46.5864 56.0838 47.0013 56.4987L49.4375 58.9349V51.9375C49.4375 51.3507 49.9132 50.875 50.5 50.875Z" fill="#CAFF33"/>
<defs>
<linearGradient id="paint0_linear_11_86875" x1="49.5" y1="0" x2="49.5" y2="98" gradientUnits="userSpaceOnUse">
<stop stop-color="#CAFF33"/>
<stop offset="1" stop-color="#CAFF33" stop-opacity="0"/>
</linearGradient>
<linearGradient id="paint1_linear_11_86875" x1="49.5" y1="-37" x2="49.5" y2="203" gradientUnits="userSpaceOnUse">
<stop stop-color="#CAFF33"/>
<stop offset="0.467671" stop-color="#CAFF33" stop-opacity="0"/>
</linearGradient>
<linearGradient id="paint2_linear_11_86875" x1="49.5" y1="-116.5" x2="49.5" y2="153" gradientUnits="userSpaceOnUse">
<stop stop-color="#CAFF33"/>
<stop offset="0.716291" stop-color="#CAFF33" stop-opacity="0"/>
</linearGradient>
</defs>
</svg>
