<svg width="73" height="72" viewBox="0 0 73 72" fill="none" xmlns="http://www.w3.org/2000/svg">
<rect x="0.332031" width="72" height="72" rx="36" fill="url(#paint0_linear_104_2438)" fill-opacity="0.05"/>
<rect x="8.33203" y="8" width="56" height="56" rx="28" fill="url(#paint1_linear_104_2438)" fill-opacity="0.1"/>
<rect x="8.83203" y="8.5" width="55" height="55" rx="27.5" stroke="url(#paint2_linear_104_2438)" stroke-opacity="0.2"/>
<path d="M36.332 30.75C34.8823 30.75 33.707 31.9253 33.707 33.375C33.707 34.8247 34.8823 36 36.332 36C37.7818 36 38.957 34.8247 38.957 33.375C38.957 31.9253 37.7818 30.75 36.332 30.75Z" fill="#CAFF33"/>
<path fill-rule="evenodd" clip-rule="evenodd" d="M24.082 27.6875C24.082 26.4794 25.0614 25.5 26.2695 25.5H46.3945C47.6027 25.5 48.582 26.4794 48.582 27.6875V39.0625C48.582 40.2706 47.6027 41.25 46.3945 41.25H26.2695C25.0614 41.25 24.082 40.2706 24.082 39.0625V27.6875ZM31.957 33.375C31.957 30.9588 33.9158 29 36.332 29C38.7483 29 40.707 30.9588 40.707 33.375C40.707 35.7912 38.7483 37.75 36.332 37.75C33.9158 37.75 31.957 35.7912 31.957 33.375ZM44.207 32.5C43.7238 32.5 43.332 32.8918 43.332 33.375V33.3837C43.332 33.867 43.7238 34.2587 44.207 34.2587H44.2158C44.699 34.2587 45.0908 33.867 45.0908 33.3837V33.375C45.0908 32.8918 44.699 32.5 44.2158 32.5H44.207ZM27.582 33.375C27.582 32.8918 27.9738 32.5 28.457 32.5H28.4658C28.949 32.5 29.3408 32.8918 29.3408 33.375V33.3837C29.3408 33.867 28.949 34.2587 28.4658 34.2587H28.457C27.9738 34.2587 27.582 33.867 27.582 33.3837V33.375Z" fill="#CAFF33"/>
<path d="M24.957 43C24.4738 43 24.082 43.3918 24.082 43.875C24.082 44.3582 24.4738 44.75 24.957 44.75C31.2571 44.75 37.359 45.5926 43.1568 47.1707C44.5458 47.5488 45.957 46.5196 45.957 45.0476V43.875C45.957 43.3918 45.5653 43 45.082 43H24.957Z" fill="#CAFF33"/>
<defs>
<linearGradient id="paint0_linear_104_2438" x1="36.332" y1="0" x2="36.332" y2="72" gradientUnits="userSpaceOnUse">
<stop stop-color="#CAFF33"/>
<stop offset="1" stop-color="#CAFF33" stop-opacity="0"/>
</linearGradient>
<linearGradient id="paint1_linear_104_2438" x1="36.332" y1="-29.0811" x2="36.332" y2="152.541" gradientUnits="userSpaceOnUse">
<stop stop-color="#CAFF33"/>
<stop offset="0.467671" stop-color="#CAFF33" stop-opacity="0"/>
</linearGradient>
<linearGradient id="paint2_linear_104_2438" x1="36.332" y1="-89.2432" x2="36.332" y2="114.703" gradientUnits="userSpaceOnUse">
<stop stop-color="#CAFF33"/>
<stop offset="0.716291" stop-color="#CAFF33" stop-opacity="0"/>
</linearGradient>
</defs>
</svg>
