<svg width="21" height="20" viewBox="0 0 21 20" fill="none" xmlns="http://www.w3.org/2000/svg">
<path fill-rule="evenodd" clip-rule="evenodd" d="M10.1165 18.6259C10.1416 18.6405 10.1614 18.6517 10.1754 18.6596L10.1987 18.6726C10.3844 18.7745 10.6148 18.7738 10.8007 18.6729L10.8246 18.6596C10.8386 18.6517 10.8584 18.6405 10.8835 18.6259C10.9339 18.5967 11.0058 18.5542 11.0963 18.4985C11.2771 18.3872 11.5323 18.223 11.8372 18.0076C12.4459 17.5776 13.2581 16.9395 14.0721 16.1061C15.6922 14.4474 17.375 11.9551 17.375 8.75C17.375 4.95304 14.297 1.875 10.5 1.875C6.70304 1.875 3.625 4.95304 3.625 8.75C3.625 11.9551 5.30777 14.4474 6.92788 16.1061C7.74188 16.9395 8.55409 17.5776 9.16282 18.0076C9.46771 18.223 9.72295 18.3872 9.90375 18.4985C9.99419 18.5542 10.0661 18.5967 10.1165 18.6259ZM10.5 11.25C11.8807 11.25 13 10.1307 13 8.75C13 7.36929 11.8807 6.25 10.5 6.25C9.11929 6.25 8 7.36929 8 8.75C8 10.1307 9.11929 11.25 10.5 11.25Z" fill="#CAFF33"/>
</svg>
