<svg width="148" height="44" viewBox="0 0 148 44" fill="none" xmlns="http://www.w3.org/2000/svg">
<rect width="44" height="44" rx="22" fill="#CAFF33"/>
<g clip-path="url(#clip0_108_2732)">
<path d="M32 22C32 16.4771 27.5229 12 22 12C16.4771 12 12 16.4771 12 22C12 26.9912 15.6568 31.1283 20.4375 31.8785V24.8906H17.8984V22H20.4375V19.7969C20.4375 17.2906 21.9305 15.9062 24.2146 15.9062C25.3084 15.9062 26.4531 16.1016 26.4531 16.1016V18.5625H25.1922C23.95 18.5625 23.5625 19.3334 23.5625 20.125V22H26.3359L25.8926 24.8906H23.5625V31.8785C28.3432 31.1283 32 26.9912 32 22Z" fill="#262626"/>
</g>
<rect x="52" width="44" height="44" rx="22" fill="#CAFF33"/>
<path d="M70.2918 30.1246C77.8371 30.1246 81.9652 23.8719 81.9652 18.4512C81.9652 18.2754 81.9613 18.0957 81.9535 17.9199C82.7566 17.3392 83.4496 16.6198 84 15.7957C83.2521 16.1285 82.458 16.3458 81.6449 16.4402C82.5011 15.9271 83.1421 15.1209 83.4492 14.1711C82.6438 14.6484 81.763 14.9851 80.8445 15.1668C80.2257 14.5093 79.4075 14.0739 78.5164 13.928C77.6253 13.7821 76.711 13.9338 75.9148 14.3597C75.1186 14.7856 74.4848 15.4619 74.1115 16.2841C73.7382 17.1062 73.6462 18.0285 73.8496 18.9082C72.2187 18.8264 70.6233 18.4027 69.1667 17.6647C67.71 16.9267 66.4247 15.8908 65.3941 14.6242C64.8703 15.5273 64.71 16.596 64.9459 17.613C65.1817 18.6301 65.7959 19.5192 66.6637 20.0996C66.0122 20.0789 65.375 19.9035 64.8047 19.5879V19.6387C64.8041 20.5864 65.1317 21.5051 65.7319 22.2386C66.3321 22.9721 67.1678 23.4751 68.0969 23.6621C67.4934 23.8272 66.86 23.8513 66.2457 23.7324C66.5079 24.5475 67.018 25.2604 67.7048 25.7716C68.3916 26.2828 69.2209 26.5668 70.077 26.584C68.6237 27.7256 66.8285 28.3447 64.9805 28.3418C64.6527 28.3413 64.3253 28.3212 64 28.2817C65.8774 29.4861 68.0613 30.1258 70.2918 30.1246Z" fill="#262626"/>
<rect x="104" width="44" height="44" rx="22" fill="#CAFF33"/>
<g clip-path="url(#clip1_108_2732)">
<path d="M134.52 12H117.477C116.66 12 116 12.6445 116 13.4414V30.5547C116 31.3516 116.66 32 117.477 32H134.52C135.336 32 136 31.3516 136 30.5586V13.4414C136 12.6445 135.336 12 134.52 12ZM121.934 29.043H118.965V19.4961H121.934V29.043ZM120.449 18.1953C119.496 18.1953 118.727 17.4258 118.727 16.4766C118.727 15.5273 119.496 14.7578 120.449 14.7578C121.398 14.7578 122.168 15.5273 122.168 16.4766C122.168 17.4219 121.398 18.1953 120.449 18.1953ZM133.043 29.043H130.078V24.4023C130.078 23.2969 130.059 21.8711 128.535 21.8711C126.992 21.8711 126.758 23.0781 126.758 24.3242V29.043H123.797V19.4961H126.641V20.8008H126.68C127.074 20.0508 128.043 19.2578 129.484 19.2578C132.488 19.2578 133.043 21.2344 133.043 23.8047V29.043Z" fill="#262626"/>
</g>
<defs>
<clipPath id="clip0_108_2732">
<rect width="20" height="20" fill="white" transform="translate(12 12)"/>
</clipPath>
<clipPath id="clip1_108_2732">
<rect width="20" height="20" fill="white" transform="translate(116 12)"/>
</clipPath>
</defs>
</svg>
