<svg width="447" height="226" viewBox="0 0 447 226" fill="none" xmlns="http://www.w3.org/2000/svg">
<path d="M5.51751 20.6814V14.6295L5.6389 15.4792L0.731472 8.54289H3.36726L7.11286 13.9185L6.29784 13.8665L9.67928 8.54289H12.211L7.51169 15.6699L7.7718 14.4908V20.6814H5.51751ZM16.3181 20.8548C15.4048 20.8548 14.5898 20.6525 13.873 20.2479C13.1563 19.8317 12.5898 19.2652 12.1736 18.5485C11.7575 17.8317 11.5494 17.0167 11.5494 16.1034C11.5494 15.1902 11.7575 14.3752 12.1736 13.6584C12.5898 12.9417 13.1563 12.381 13.873 11.9764C14.5898 11.5602 15.4048 11.3521 16.3181 11.3521C17.2198 11.3521 18.029 11.5602 18.7458 11.9764C19.4625 12.381 20.0232 12.9417 20.4278 13.6584C20.844 14.3752 21.0521 15.1902 21.0521 16.1034C21.0521 17.0167 20.844 17.8317 20.4278 18.5485C20.0232 19.2652 19.4625 19.8317 18.7458 20.2479C18.029 20.6525 17.2198 20.8548 16.3181 20.8548ZM16.3181 18.9647C16.8152 18.9647 17.2545 18.8375 17.636 18.5832C18.029 18.3288 18.3354 17.9878 18.555 17.5601C18.7862 17.1323 18.8961 16.6468 18.8845 16.1034C18.8961 15.5485 18.7862 15.0572 18.555 14.6295C18.3354 14.2017 18.029 13.8665 17.636 13.6237C17.2545 13.3694 16.8152 13.2422 16.3181 13.2422C15.821 13.2422 15.3701 13.3694 14.9655 13.6237C14.5724 13.8665 14.2661 14.2075 14.0464 14.6468C13.8268 15.0746 13.717 15.5601 13.717 16.1034C13.717 16.6468 13.8268 17.1323 14.0464 17.5601C14.2661 17.9878 14.5724 18.3288 14.9655 18.5832C15.3701 18.8375 15.821 18.9647 16.3181 18.9647ZM26.1333 20.8548C25.4744 20.8548 24.9021 20.7103 24.4166 20.4213C23.9311 20.1207 23.5611 19.6988 23.3068 19.1554C23.0525 18.6005 22.9253 17.9416 22.9253 17.1786V11.5428H25.0582V16.7277C25.0582 17.2133 25.1333 17.6294 25.2836 17.9762C25.4339 18.3115 25.6536 18.5716 25.9426 18.7566C26.2316 18.9415 26.5784 19.034 26.983 19.034C27.2836 19.034 27.5553 18.9878 27.798 18.8953C28.0524 18.7913 28.272 18.6525 28.457 18.4791C28.6419 18.2942 28.7865 18.0803 28.8905 17.8375C28.9945 17.5832 29.0466 17.3115 29.0466 17.0225V11.5428H31.1795V20.6814H29.0986L29.0639 18.7739L29.4454 18.5658C29.3067 19.0051 29.0697 19.3982 28.7344 19.745C28.4107 20.0803 28.0235 20.3519 27.5726 20.56C27.1217 20.7565 26.642 20.8548 26.1333 20.8548ZM33.6794 20.6814V11.5428H35.7776L35.8123 14.4561L35.5175 13.7971C35.6447 13.3347 35.8643 12.9185 36.1764 12.5486C36.4886 12.1787 36.847 11.8897 37.2516 11.6816C37.6677 11.4619 38.1013 11.3521 38.5521 11.3521C38.7486 11.3521 38.9336 11.3694 39.107 11.4041C39.292 11.4388 39.4423 11.4793 39.5579 11.5255L38.9856 13.8665C38.8585 13.7971 38.7024 13.7393 38.5174 13.6931C38.3325 13.6468 38.1475 13.6237 37.9625 13.6237C37.6735 13.6237 37.3961 13.6815 37.1302 13.7971C36.8759 13.9012 36.6504 14.0515 36.4539 14.248C36.2574 14.4445 36.1013 14.6757 35.9857 14.9416C35.8817 15.1959 35.8296 15.485 35.8296 15.8087V20.6814H33.6794ZM48.8845 20.6814V10.6238H45.4163V8.54289H54.711V10.6238H51.1388V20.6814H48.8845ZM55.5077 20.6814V11.5428H57.6059L57.6406 14.4561L57.3458 13.7971C57.473 13.3347 57.6926 12.9185 58.0048 12.5486C58.3169 12.1787 58.6753 11.8897 59.0799 11.6816C59.4961 11.4619 59.9296 11.3521 60.3804 11.3521C60.577 11.3521 60.7619 11.3694 60.9353 11.4041C61.1203 11.4388 61.2706 11.4793 61.3862 11.5255L60.8139 13.8665C60.6868 13.7971 60.5307 13.7393 60.3457 13.6931C60.1608 13.6468 59.9758 13.6237 59.7908 13.6237C59.5018 13.6237 59.2244 13.6815 58.9585 13.7971C58.7042 13.9012 58.4787 14.0515 58.2822 14.248C58.0857 14.4445 57.9296 14.6757 57.814 14.9416C57.71 15.1959 57.6579 15.485 57.6579 15.8087V20.6814H55.5077ZM65.8677 20.8548C65.1163 20.8548 64.4342 20.6467 63.8215 20.2305C63.2088 19.8144 62.7175 19.2479 62.3475 18.5311C61.9776 17.8144 61.7926 16.9994 61.7926 16.0861C61.7926 15.1728 61.9776 14.3578 62.3475 13.6411C62.7175 12.9243 63.2203 12.3636 63.8562 11.959C64.492 11.5544 65.2087 11.3521 66.0064 11.3521C66.4688 11.3521 66.8908 11.4215 67.2723 11.5602C67.6538 11.6873 67.989 11.8723 68.278 12.1151C68.5671 12.3579 68.804 12.6353 68.989 12.9474C69.1855 13.2596 69.3185 13.5948 69.3879 13.9532L68.9197 13.8318V11.5428H71.0699V20.6814H68.9023V18.4965L69.4052 18.4098C69.3243 18.7219 69.174 19.0282 68.9543 19.3288C68.7462 19.6178 68.4804 19.8779 68.1567 20.1092C67.8445 20.3288 67.4919 20.508 67.0989 20.6467C66.7174 20.7854 66.307 20.8548 65.8677 20.8548ZM66.4573 18.9647C66.9544 18.9647 67.3937 18.8433 67.7752 18.6005C68.1567 18.3577 68.4515 18.0225 68.6595 17.5947C68.8792 17.1555 68.989 16.6526 68.989 16.0861C68.989 15.5312 68.8792 15.0399 68.6595 14.6121C68.4515 14.1844 68.1567 13.8492 67.7752 13.6064C67.3937 13.3636 66.9544 13.2422 66.4573 13.2422C65.9602 13.2422 65.5209 13.3636 65.1394 13.6064C64.7694 13.8492 64.4804 14.1844 64.2723 14.6121C64.0643 15.0399 63.9602 15.5312 63.9602 16.0861C63.9602 16.6526 64.0643 17.1555 64.2723 17.5947C64.4804 18.0225 64.7694 18.3577 65.1394 18.6005C65.5209 18.8433 65.9602 18.9647 66.4573 18.9647ZM73.5427 20.6814V11.5428H75.6236L75.6583 13.4156L75.2594 13.6237C75.375 13.2075 75.6005 12.8318 75.9357 12.4966C76.271 12.1498 76.6698 11.8723 77.1322 11.6642C77.5947 11.4561 78.0686 11.3521 78.5542 11.3521C79.2478 11.3521 79.8258 11.4908 80.2883 11.7683C80.7622 12.0457 81.1148 12.4619 81.346 13.0168C81.5888 13.5717 81.7102 14.2653 81.7102 15.0977V20.6814H79.5773V15.2538C79.5773 14.7913 79.5137 14.4098 79.3865 14.1093C79.2594 13.7971 79.0628 13.5717 78.797 13.433C78.5311 13.2827 78.2074 13.2133 77.8259 13.2249C77.5137 13.2249 77.2247 13.2769 76.9588 13.381C76.7045 13.4734 76.4791 13.6122 76.2825 13.7971C76.0976 13.9705 75.9473 14.1728 75.8317 14.4041C75.7276 14.6353 75.6756 14.8896 75.6756 15.167V20.6814H74.6178C74.4097 20.6814 74.2132 20.6814 74.0283 20.6814C73.8548 20.6814 73.693 20.6814 73.5427 20.6814ZM87.1617 20.8548C86.3524 20.8548 85.6241 20.7219 84.9768 20.456C84.3409 20.1785 83.8207 19.7855 83.4161 19.2768L84.8033 18.0803C85.1502 18.4733 85.5374 18.7566 85.9652 18.93C86.3929 19.1034 86.8438 19.1901 87.3177 19.1901C87.5143 19.1901 87.6877 19.167 87.838 19.1207C87.9998 19.0745 88.1385 19.0051 88.2541 18.9126C88.3698 18.8202 88.4565 18.7161 88.5143 18.6005C88.5836 18.4733 88.6183 18.3346 88.6183 18.1843C88.6183 17.9069 88.5143 17.6872 88.3062 17.5254C88.1906 17.4445 88.0056 17.3578 87.7513 17.2653C87.5085 17.1728 87.1906 17.0803 86.7975 16.9878C86.1733 16.826 85.653 16.641 85.2369 16.4329C84.8207 16.2133 84.497 15.9705 84.2658 15.7046C84.0693 15.485 83.919 15.2364 83.8149 14.959C83.7224 14.6815 83.6762 14.3809 83.6762 14.0572C83.6762 13.6526 83.7629 13.2885 83.9363 12.9648C84.1213 12.6295 84.3698 12.3405 84.682 12.0977C84.9941 11.855 85.3582 11.67 85.7744 11.5428C86.1906 11.4157 86.6241 11.3521 87.075 11.3521C87.5374 11.3521 87.9825 11.4099 88.4102 11.5255C88.8495 11.6411 89.2541 11.8087 89.6241 12.0284C90.0056 12.2365 90.3293 12.4908 90.5951 12.7914L89.416 14.0919C89.1963 13.8838 88.9536 13.6989 88.6877 13.537C88.4333 13.3752 88.1732 13.248 87.9073 13.1555C87.6414 13.0515 87.3929 12.9995 87.1617 12.9995C86.942 12.9995 86.7455 13.0226 86.5721 13.0688C86.3987 13.1035 86.2542 13.1613 86.1386 13.2422C86.023 13.3232 85.9305 13.4272 85.8611 13.5544C85.8033 13.67 85.7744 13.8087 85.7744 13.9705C85.786 14.1093 85.8207 14.2422 85.8785 14.3694C85.9478 14.485 86.0403 14.5832 86.1559 14.6642C86.2831 14.7451 86.4738 14.8376 86.7282 14.9416C86.9825 15.0457 87.312 15.1439 87.7166 15.2364C88.283 15.3867 88.757 15.5543 89.1385 15.7393C89.52 15.9243 89.8206 16.1381 90.0402 16.3809C90.2599 16.589 90.416 16.8318 90.5084 17.1092C90.6009 17.3867 90.6472 17.693 90.6472 18.0283C90.6472 18.5716 90.4911 19.0571 90.179 19.4849C89.8784 19.9126 89.4622 20.2479 88.9304 20.4906C88.4102 20.7334 87.8206 20.8548 87.1617 20.8548ZM95.9769 20.8548C95.2254 20.8548 94.5434 20.6467 93.9307 20.2305C93.318 19.8144 92.8266 19.2479 92.4567 18.5311C92.0868 17.8144 91.9018 16.9994 91.9018 16.0861C91.9018 15.1728 92.0868 14.3578 92.4567 13.6411C92.8266 12.9243 93.3295 12.3636 93.9653 11.959C94.6012 11.5544 95.3179 11.3521 96.1156 11.3521C96.578 11.3521 97 11.4215 97.3815 11.5602C97.763 11.6873 98.0982 11.8723 98.3872 12.1151C98.6762 12.3579 98.9132 12.6353 99.0982 12.9474C99.2947 13.2596 99.4277 13.5948 99.497 13.9532L99.0288 13.8318V11.5428H101.179V20.6814H99.0115V18.4965L99.5144 18.4098C99.4334 18.7219 99.2832 19.0282 99.0635 19.3288C98.8554 19.6178 98.5895 19.8779 98.2658 20.1092C97.9537 20.3288 97.6011 20.508 97.2081 20.6467C96.8266 20.7854 96.4162 20.8548 95.9769 20.8548ZM96.5664 18.9647C97.0635 18.9647 97.5028 18.8433 97.8843 18.6005C98.2658 18.3577 98.5606 18.0225 98.7687 17.5947C98.9884 17.1555 99.0982 16.6526 99.0982 16.0861C99.0982 15.5312 98.9884 15.0399 98.7687 14.6121C98.5606 14.1844 98.2658 13.8492 97.8843 13.6064C97.5028 13.3636 97.0635 13.2422 96.5664 13.2422C96.0693 13.2422 95.63 13.3636 95.2486 13.6064C94.8786 13.8492 94.5896 14.1844 94.3815 14.6121C94.1734 15.0399 94.0694 15.5312 94.0694 16.0861C94.0694 16.6526 94.1734 17.1555 94.3815 17.5947C94.5896 18.0225 94.8786 18.3577 95.2486 18.6005C95.63 18.8433 96.0693 18.9647 96.5664 18.9647ZM107.571 20.8548C106.715 20.8548 105.947 20.6467 105.265 20.2305C104.583 19.8144 104.045 19.2479 103.652 18.5311C103.259 17.8144 103.062 17.0052 103.062 16.1034C103.062 15.2017 103.259 14.3925 103.652 13.6757C104.045 12.959 104.583 12.3925 105.265 11.9764C105.947 11.5602 106.715 11.3521 107.571 11.3521C108.392 11.3521 109.137 11.5082 109.808 11.8203C110.478 12.1324 110.999 12.5659 111.369 13.1208L110.189 14.5428C110.016 14.3 109.796 14.0804 109.53 13.8838C109.265 13.6873 108.981 13.5312 108.681 13.4156C108.38 13.3 108.08 13.2422 107.779 13.2422C107.27 13.2422 106.814 13.3694 106.409 13.6237C106.016 13.8665 105.704 14.2075 105.473 14.6468C105.241 15.0746 105.126 15.5601 105.126 16.1034C105.126 16.6468 105.241 17.1323 105.473 17.5601C105.715 17.9878 106.039 18.3288 106.444 18.5832C106.848 18.8375 107.299 18.9647 107.796 18.9647C108.097 18.9647 108.386 18.9184 108.663 18.8259C108.952 18.7219 109.224 18.5774 109.478 18.3924C109.733 18.2075 109.97 17.9762 110.189 17.6988L111.369 19.1381C110.975 19.6467 110.432 20.0629 109.738 20.3866C109.056 20.6987 108.334 20.8548 107.571 20.8548ZM113.988 20.6814V9.21918H116.121V20.6814H113.988ZM112.185 13.5197V11.5428H118.115V13.5197H112.185ZM119.982 20.6814V11.5428H122.115V20.6814H119.982ZM121.023 9.60068C120.595 9.60068 120.26 9.49663 120.017 9.28854C119.786 9.06889 119.67 8.76254 119.67 8.36949C119.67 7.99955 119.791 7.69898 120.034 7.46777C120.277 7.23656 120.607 7.12095 121.023 7.12095C121.462 7.12095 121.797 7.23078 122.028 7.45043C122.271 7.65852 122.393 7.96487 122.393 8.36949C122.393 8.72786 122.271 9.02265 122.028 9.25386C121.786 9.48507 121.45 9.60068 121.023 9.60068ZM128.999 20.8548C128.086 20.8548 127.271 20.6525 126.554 20.2479C125.837 19.8317 125.271 19.2652 124.854 18.5485C124.438 17.8317 124.23 17.0167 124.23 16.1034C124.23 15.1902 124.438 14.3752 124.854 13.6584C125.271 12.9417 125.837 12.381 126.554 11.9764C127.271 11.5602 128.086 11.3521 128.999 11.3521C129.901 11.3521 130.71 11.5602 131.427 11.9764C132.143 12.381 132.704 12.9417 133.109 13.6584C133.525 14.3752 133.733 15.1902 133.733 16.1034C133.733 17.0167 133.525 17.8317 133.109 18.5485C132.704 19.2652 132.143 19.8317 131.427 20.2479C130.71 20.6525 129.901 20.8548 128.999 20.8548ZM128.999 18.9647C129.496 18.9647 129.935 18.8375 130.317 18.5832C130.71 18.3288 131.016 17.9878 131.236 17.5601C131.467 17.1323 131.577 16.6468 131.565 16.1034C131.577 15.5485 131.467 15.0572 131.236 14.6295C131.016 14.2017 130.71 13.8665 130.317 13.6237C129.935 13.3694 129.496 13.2422 128.999 13.2422C128.502 13.2422 128.051 13.3694 127.646 13.6237C127.253 13.8665 126.947 14.2075 126.727 14.6468C126.508 15.0746 126.398 15.5601 126.398 16.1034C126.398 16.6468 126.508 17.1323 126.727 17.5601C126.947 17.9878 127.253 18.3288 127.646 18.5832C128.051 18.8375 128.502 18.9647 128.999 18.9647ZM135.641 20.6814V11.5428H137.722L137.756 13.4156L137.358 13.6237C137.473 13.2075 137.699 12.8318 138.034 12.4966C138.369 12.1498 138.768 11.8723 139.23 11.6642C139.693 11.4561 140.167 11.3521 140.652 11.3521C141.346 11.3521 141.924 11.4908 142.386 11.7683C142.86 12.0457 143.213 12.4619 143.444 13.0168C143.687 13.5717 143.808 14.2653 143.808 15.0977V20.6814H141.675V15.2538C141.675 14.7913 141.612 14.4098 141.485 14.1093C141.357 13.7971 141.161 13.5717 140.895 13.433C140.629 13.2827 140.305 13.2133 139.924 13.2249C139.612 13.2249 139.323 13.2769 139.057 13.381C138.803 13.4734 138.577 13.6122 138.381 13.7971C138.196 13.9705 138.045 14.1728 137.93 14.4041C137.826 14.6353 137.774 14.8896 137.774 15.167V20.6814H136.716C136.508 20.6814 136.311 20.6814 136.126 20.6814C135.953 20.6814 135.791 20.6814 135.641 20.6814ZM149.26 20.8548C148.451 20.8548 147.722 20.7219 147.075 20.456C146.439 20.1785 145.919 19.7855 145.514 19.2768L146.901 18.0803C147.248 18.4733 147.635 18.7566 148.063 18.93C148.491 19.1034 148.942 19.1901 149.416 19.1901C149.612 19.1901 149.786 19.167 149.936 19.1207C150.098 19.0745 150.237 19.0051 150.352 18.9126C150.468 18.8202 150.555 18.7161 150.612 18.6005C150.682 18.4733 150.716 18.3346 150.716 18.1843C150.716 17.9069 150.612 17.6872 150.404 17.5254C150.289 17.4445 150.104 17.3578 149.849 17.2653C149.607 17.1728 149.289 17.0803 148.896 16.9878C148.271 16.826 147.751 16.641 147.335 16.4329C146.919 16.2133 146.595 15.9705 146.364 15.7046C146.167 15.485 146.017 15.2364 145.913 14.959C145.82 14.6815 145.774 14.3809 145.774 14.0572C145.774 13.6526 145.861 13.2885 146.034 12.9648C146.219 12.6295 146.468 12.3405 146.78 12.0977C147.092 11.855 147.456 11.67 147.872 11.5428C148.289 11.4157 148.722 11.3521 149.173 11.3521C149.635 11.3521 150.081 11.4099 150.508 11.5255C150.948 11.6411 151.352 11.8087 151.722 12.0284C152.104 12.2365 152.427 12.4908 152.693 12.7914L151.514 14.0919C151.294 13.8838 151.052 13.6989 150.786 13.537C150.531 13.3752 150.271 13.248 150.005 13.1555C149.74 13.0515 149.491 12.9995 149.26 12.9995C149.04 12.9995 148.844 13.0226 148.67 13.0688C148.497 13.1035 148.352 13.1613 148.237 13.2422C148.121 13.3232 148.029 13.4272 147.959 13.5544C147.901 13.67 147.872 13.8087 147.872 13.9705C147.884 14.1093 147.919 14.2422 147.977 14.3694C148.046 14.485 148.138 14.5832 148.254 14.6642C148.381 14.7451 148.572 14.8376 148.826 14.9416C149.081 15.0457 149.41 15.1439 149.815 15.2364C150.381 15.3867 150.855 15.5543 151.237 15.7393C151.618 15.9243 151.919 16.1381 152.138 16.3809C152.358 16.589 152.514 16.8318 152.607 17.1092C152.699 17.3867 152.745 17.693 152.745 18.0283C152.745 18.5716 152.589 19.0571 152.277 19.4849C151.976 19.9126 151.56 20.2479 151.028 20.4906C150.508 20.7334 149.919 20.8548 149.26 20.8548Z" fill="white"/>
<g opacity="0.2">
<rect x="35.7768" y="149.392" width="375.427" height="75.8781" rx="9.97091" fill="#1C1C1C"/>
<rect x="35.7768" y="149.392" width="375.427" height="75.8781" rx="9.97091" stroke="#262626" stroke-width="0.867036"/>
<rect x="56.1523" y="168.257" width="38.1496" height="38.1496" rx="19.0748" fill="#CAFF33"/>
<path fill-rule="evenodd" clip-rule="evenodd" d="M78.5567 179.257C78.2635 179.573 78.2817 180.067 78.5976 180.36L80.7829 182.389L71.8454 182.389C71.4145 182.389 71.0651 182.739 71.0651 183.17C71.0651 183.601 71.4145 183.95 71.8454 183.95L80.7829 183.95L78.5976 185.979C78.2817 186.272 78.2635 186.766 78.5567 187.082C78.85 187.398 79.3437 187.416 79.6595 187.123L83.3011 183.741C83.4601 183.594 83.5504 183.387 83.5504 183.17C83.5504 182.953 83.4601 182.745 83.3011 182.598L79.6595 179.216C79.3437 178.923 78.85 178.941 78.5567 179.257ZM71.897 187.581C71.6038 187.265 71.11 187.247 70.7942 187.54L67.1527 190.921C66.9937 191.069 66.9033 191.276 66.9033 191.493C66.9033 191.71 66.9937 191.917 67.1527 192.065L70.7942 195.446C71.11 195.74 71.6038 195.721 71.897 195.406C72.1903 195.09 72.172 194.596 71.8562 194.303L69.6708 192.273H78.6083C79.0393 192.273 79.3886 191.924 79.3886 191.493C79.3886 191.062 79.0393 190.713 78.6083 190.713H69.6708L71.8562 188.684C72.172 188.39 72.1903 187.897 71.897 187.581Z" fill="#1C1C1C"/>
<path d="M106.562 179.831V170.093H103.44V168.907H111.025V170.093H107.779V179.831H106.562ZM111.686 179.831V171.685H112.857L112.888 173.854L112.763 173.557C112.877 173.193 113.06 172.855 113.309 172.543C113.569 172.231 113.876 171.981 114.23 171.794C114.584 171.607 114.974 171.513 115.401 171.513C115.577 171.513 115.744 171.529 115.9 171.56C116.056 171.581 116.186 171.612 116.29 171.653L115.962 172.964C115.827 172.902 115.687 172.86 115.541 172.84C115.406 172.808 115.276 172.793 115.151 172.793C114.797 172.793 114.48 172.855 114.199 172.98C113.918 173.105 113.679 173.282 113.481 173.511C113.283 173.729 113.132 173.984 113.028 174.275C112.924 174.567 112.872 174.879 112.872 175.212V179.831H111.686ZM120.341 179.987C119.634 179.987 118.994 179.805 118.422 179.441C117.85 179.067 117.397 178.562 117.064 177.927C116.731 177.282 116.565 176.554 116.565 175.742C116.565 174.92 116.736 174.192 117.08 173.557C117.423 172.923 117.881 172.423 118.453 172.059C119.036 171.695 119.686 171.513 120.404 171.513C120.83 171.513 121.226 171.575 121.59 171.7C121.954 171.825 122.277 172.002 122.558 172.231C122.849 172.449 123.088 172.709 123.275 173.011C123.473 173.303 123.608 173.62 123.681 173.963L123.338 173.792L123.385 171.685H124.555V179.831H123.369V177.834L123.681 177.631C123.608 177.943 123.468 178.245 123.26 178.536C123.052 178.817 122.797 179.067 122.495 179.285C122.204 179.504 121.871 179.675 121.496 179.8C121.132 179.925 120.747 179.987 120.341 179.987ZM120.607 178.864C121.148 178.864 121.632 178.734 122.058 178.474C122.485 178.203 122.818 177.834 123.057 177.365C123.307 176.887 123.432 176.346 123.432 175.742C123.432 175.139 123.307 174.603 123.057 174.135C122.818 173.667 122.485 173.297 122.058 173.027C121.632 172.756 121.148 172.621 120.607 172.621C120.055 172.621 119.566 172.756 119.14 173.027C118.724 173.297 118.391 173.667 118.141 174.135C117.902 174.603 117.782 175.139 117.782 175.742C117.782 176.335 117.902 176.871 118.141 177.35C118.38 177.818 118.713 178.187 119.14 178.458C119.566 178.728 120.055 178.864 120.607 178.864ZM126.836 179.831V171.685H127.99L128.037 173.386L127.85 173.464C127.954 173.11 128.157 172.787 128.459 172.496C128.76 172.205 129.119 171.971 129.536 171.794C129.962 171.607 130.399 171.513 130.846 171.513C131.45 171.513 131.955 171.633 132.36 171.872C132.766 172.111 133.073 172.481 133.281 172.98C133.489 173.479 133.593 174.114 133.593 174.884V179.831H132.407V174.946C132.407 174.405 132.334 173.963 132.189 173.62C132.053 173.266 131.84 173.006 131.549 172.84C131.257 172.673 130.899 172.595 130.472 172.605C130.118 172.605 129.79 172.668 129.489 172.793C129.187 172.907 128.927 173.068 128.708 173.277C128.49 173.485 128.318 173.724 128.193 173.994C128.069 174.265 128.006 174.556 128.006 174.868V179.831H127.429C127.356 179.831 127.273 179.831 127.179 179.831C127.085 179.831 126.971 179.831 126.836 179.831ZM138.496 179.987C137.799 179.987 137.175 179.857 136.624 179.597C136.072 179.337 135.635 178.994 135.313 178.567L136.14 177.849C136.442 178.213 136.795 178.489 137.201 178.676C137.617 178.864 138.08 178.957 138.59 178.957C138.85 178.957 139.084 178.931 139.292 178.879C139.5 178.817 139.683 178.728 139.839 178.614C139.995 178.5 140.114 178.364 140.198 178.208C140.281 178.052 140.322 177.88 140.322 177.693C140.322 177.35 140.172 177.064 139.87 176.835C139.735 176.741 139.542 176.648 139.292 176.554C139.043 176.45 138.741 176.351 138.387 176.257C137.805 176.091 137.321 175.924 136.936 175.758C136.551 175.581 136.249 175.378 136.031 175.149C135.875 174.962 135.755 174.759 135.672 174.541C135.599 174.322 135.562 174.083 135.562 173.823C135.562 173.49 135.63 173.183 135.765 172.902C135.911 172.621 136.109 172.377 136.358 172.168C136.618 171.95 136.92 171.789 137.264 171.685C137.617 171.57 137.997 171.513 138.403 171.513C138.788 171.513 139.168 171.565 139.542 171.669C139.917 171.773 140.265 171.924 140.588 172.122C140.91 172.319 141.186 172.553 141.415 172.824L140.697 173.604C140.499 173.396 140.281 173.209 140.041 173.042C139.802 172.876 139.547 172.746 139.277 172.652C139.017 172.559 138.746 172.512 138.465 172.512C138.216 172.512 137.981 172.543 137.763 172.605C137.555 172.668 137.373 172.756 137.217 172.871C137.071 172.975 136.957 173.105 136.873 173.261C136.801 173.417 136.764 173.589 136.764 173.776C136.764 173.932 136.795 174.072 136.858 174.197C136.92 174.322 137.009 174.431 137.123 174.525C137.269 174.639 137.472 174.749 137.732 174.853C138.002 174.946 138.335 175.045 138.731 175.149C139.188 175.274 139.573 175.404 139.885 175.539C140.208 175.664 140.473 175.815 140.681 175.992C140.962 176.2 141.16 176.439 141.274 176.71C141.399 176.98 141.462 177.287 141.462 177.631C141.462 178.089 141.332 178.494 141.072 178.848C140.822 179.202 140.473 179.483 140.026 179.691C139.578 179.889 139.069 179.987 138.496 179.987ZM146.479 179.987C145.772 179.987 145.132 179.805 144.56 179.441C143.988 179.067 143.535 178.562 143.202 177.927C142.869 177.282 142.703 176.554 142.703 175.742C142.703 174.92 142.874 174.192 143.218 173.557C143.561 172.923 144.019 172.423 144.591 172.059C145.174 171.695 145.824 171.513 146.542 171.513C146.968 171.513 147.364 171.575 147.728 171.7C148.092 171.825 148.415 172.002 148.696 172.231C148.987 172.449 149.226 172.709 149.414 173.011C149.611 173.303 149.746 173.62 149.819 173.963L149.476 173.792L149.523 171.685H150.693V179.831H149.507V177.834L149.819 177.631C149.746 177.943 149.606 178.245 149.398 178.536C149.19 178.817 148.935 179.067 148.633 179.285C148.342 179.504 148.009 179.675 147.634 179.8C147.27 179.925 146.885 179.987 146.479 179.987ZM146.745 178.864C147.286 178.864 147.77 178.734 148.196 178.474C148.623 178.203 148.956 177.834 149.195 177.365C149.445 176.887 149.57 176.346 149.57 175.742C149.57 175.139 149.445 174.603 149.195 174.135C148.956 173.667 148.623 173.297 148.196 173.027C147.77 172.756 147.286 172.621 146.745 172.621C146.193 172.621 145.704 172.756 145.278 173.027C144.862 173.297 144.529 173.667 144.279 174.135C144.04 174.603 143.92 175.139 143.92 175.742C143.92 176.335 144.04 176.871 144.279 177.35C144.518 177.818 144.851 178.187 145.278 178.458C145.704 178.728 146.193 178.864 146.745 178.864ZM156.407 179.987C155.637 179.987 154.951 179.805 154.347 179.441C153.744 179.067 153.265 178.562 152.911 177.927C152.568 177.282 152.396 176.554 152.396 175.742C152.396 174.931 152.568 174.208 152.911 173.573C153.265 172.928 153.744 172.423 154.347 172.059C154.951 171.695 155.642 171.513 156.423 171.513C157.12 171.513 157.755 171.653 158.327 171.934C158.899 172.205 159.357 172.585 159.7 173.074L159.013 173.916C158.816 173.656 158.576 173.427 158.296 173.23C158.025 173.032 157.728 172.881 157.406 172.777C157.094 172.663 156.782 172.605 156.47 172.605C155.918 172.605 155.424 172.746 154.987 173.027C154.55 173.297 154.201 173.667 153.941 174.135C153.692 174.603 153.567 175.139 153.567 175.742C153.567 176.346 153.692 176.887 153.941 177.365C154.201 177.834 154.55 178.203 154.987 178.474C155.424 178.744 155.913 178.879 156.454 178.879C156.766 178.879 157.073 178.832 157.375 178.739C157.676 178.635 157.963 178.489 158.233 178.302C158.504 178.115 158.753 177.88 158.982 177.6L159.669 178.442C159.315 178.911 158.842 179.285 158.249 179.566C157.656 179.847 157.042 179.987 156.407 179.987ZM162.312 179.831V169.547H163.483V179.831H162.312ZM160.471 172.808V171.685H165.543V172.808H160.471ZM167.292 179.831V171.685H168.463V179.831H167.292ZM167.87 169.921C167.578 169.921 167.355 169.848 167.199 169.703C167.053 169.547 166.98 169.338 166.98 169.078C166.98 168.818 167.058 168.61 167.214 168.454C167.37 168.298 167.589 168.22 167.87 168.22C168.151 168.22 168.369 168.298 168.525 168.454C168.681 168.6 168.759 168.808 168.759 169.078C168.759 169.328 168.681 169.531 168.525 169.687C168.369 169.843 168.151 169.921 167.87 169.921ZM174.624 179.987C173.812 179.987 173.089 179.805 172.455 179.441C171.83 179.077 171.336 178.572 170.972 177.927C170.618 177.282 170.441 176.549 170.441 175.727C170.441 174.915 170.618 174.192 170.972 173.557C171.336 172.923 171.83 172.423 172.455 172.059C173.089 171.695 173.812 171.513 174.624 171.513C175.425 171.513 176.138 171.695 176.762 172.059C177.397 172.423 177.891 172.923 178.245 173.557C178.609 174.192 178.791 174.915 178.791 175.727C178.791 176.549 178.609 177.282 178.245 177.927C177.891 178.572 177.397 179.077 176.762 179.441C176.138 179.805 175.425 179.987 174.624 179.987ZM174.624 178.879C175.196 178.879 175.706 178.744 176.153 178.474C176.601 178.193 176.949 177.818 177.199 177.35C177.449 176.871 177.574 176.33 177.574 175.727C177.574 175.123 177.449 174.587 177.199 174.119C176.949 173.651 176.601 173.287 176.153 173.027C175.706 172.756 175.196 172.621 174.624 172.621C174.052 172.621 173.537 172.756 173.079 173.027C172.632 173.287 172.278 173.656 172.018 174.135C171.768 174.603 171.648 175.134 171.659 175.727C171.648 176.33 171.768 176.871 172.018 177.35C172.278 177.818 172.632 178.193 173.079 178.474C173.537 178.744 174.052 178.879 174.624 178.879ZM180.499 179.831V171.685H181.654L181.7 173.386L181.513 173.464C181.617 173.11 181.82 172.787 182.122 172.496C182.423 172.205 182.782 171.971 183.199 171.794C183.625 171.607 184.062 171.513 184.51 171.513C185.113 171.513 185.618 171.633 186.023 171.872C186.429 172.111 186.736 172.481 186.944 172.98C187.152 173.479 187.256 174.114 187.256 174.884V179.831H186.07V174.946C186.07 174.405 185.997 173.963 185.852 173.62C185.716 173.266 185.503 173.006 185.212 172.84C184.921 172.673 184.562 172.595 184.135 172.605C183.781 172.605 183.454 172.668 183.152 172.793C182.85 172.907 182.59 173.068 182.371 173.277C182.153 173.485 181.981 173.724 181.856 173.994C181.732 174.265 181.669 174.556 181.669 174.868V179.831H181.092C181.019 179.831 180.936 179.831 180.842 179.831C180.748 179.831 180.634 179.831 180.499 179.831Z" fill="white"/>
<path d="M104.672 205.831V193.693H106.544V204.028H112.232V205.831H104.672ZM118.511 206.005C117.575 206.005 116.742 205.808 116.014 205.415C115.297 205.011 114.731 204.461 114.315 203.768C113.91 203.074 113.708 202.276 113.708 201.375C113.708 200.658 113.823 200.005 114.055 199.415C114.286 198.826 114.604 198.317 115.008 197.889C115.425 197.45 115.916 197.115 116.482 196.883C117.06 196.641 117.685 196.519 118.355 196.519C118.945 196.519 119.494 196.635 120.003 196.866C120.511 197.086 120.95 197.392 121.32 197.785C121.702 198.178 121.991 198.646 122.187 199.19C122.396 199.722 122.494 200.305 122.482 200.941L122.465 201.704H115.026L114.627 200.282H120.922L120.661 200.577V200.161C120.627 199.779 120.5 199.438 120.28 199.138C120.06 198.837 119.783 198.6 119.448 198.427C119.112 198.253 118.748 198.167 118.355 198.167C117.731 198.167 117.205 198.288 116.777 198.531C116.349 198.762 116.026 199.109 115.806 199.571C115.586 200.022 115.477 200.583 115.477 201.253C115.477 201.889 115.61 202.444 115.875 202.918C116.141 203.38 116.517 203.739 117.003 203.993C117.488 204.248 118.049 204.375 118.685 204.375C119.135 204.375 119.552 204.3 119.933 204.149C120.326 203.999 120.748 203.727 121.199 203.334L122.101 204.6C121.823 204.878 121.482 205.12 121.078 205.328C120.685 205.537 120.263 205.704 119.812 205.831C119.372 205.947 118.939 206.005 118.511 206.005ZM124.423 205.831V196.727H126.209V198.6L125.897 198.808C126.013 198.404 126.238 198.034 126.574 197.699C126.909 197.352 127.308 197.074 127.77 196.866C128.232 196.646 128.706 196.537 129.192 196.537C129.886 196.537 130.464 196.675 130.926 196.953C131.389 197.219 131.735 197.629 131.967 198.184C132.198 198.739 132.313 199.438 132.313 200.282V205.831H130.527V200.404C130.527 199.883 130.458 199.456 130.319 199.12C130.18 198.774 129.967 198.525 129.678 198.375C129.389 198.213 129.03 198.144 128.602 198.167C128.256 198.167 127.938 198.225 127.649 198.34C127.36 198.444 127.105 198.594 126.886 198.791C126.678 198.987 126.51 199.219 126.383 199.485C126.267 199.739 126.209 200.016 126.209 200.317V205.831H125.325C125.175 205.831 125.024 205.831 124.874 205.831C124.724 205.831 124.574 205.831 124.423 205.831ZM138.985 206.005C138.048 206.005 137.216 205.808 136.488 205.415C135.771 205.011 135.205 204.461 134.788 203.768C134.384 203.074 134.181 202.276 134.181 201.375C134.181 200.658 134.297 200.005 134.528 199.415C134.759 198.826 135.077 198.317 135.482 197.889C135.898 197.45 136.389 197.115 136.956 196.883C137.534 196.641 138.158 196.519 138.829 196.519C139.418 196.519 139.967 196.635 140.476 196.866C140.985 197.086 141.424 197.392 141.794 197.785C142.175 198.178 142.464 198.646 142.661 199.19C142.869 199.722 142.967 200.305 142.956 200.941L142.938 201.704H135.499L135.1 200.282H141.395L141.135 200.577V200.161C141.1 199.779 140.973 199.438 140.754 199.138C140.534 198.837 140.256 198.6 139.921 198.427C139.586 198.253 139.222 198.167 138.829 198.167C138.204 198.167 137.678 198.288 137.251 198.531C136.823 198.762 136.499 199.109 136.28 199.571C136.06 200.022 135.95 200.583 135.95 201.253C135.95 201.889 136.083 202.444 136.349 202.918C136.615 203.38 136.991 203.739 137.476 203.993C137.962 204.248 138.522 204.375 139.158 204.375C139.609 204.375 140.025 204.3 140.407 204.149C140.8 203.999 141.222 203.727 141.673 203.334L142.574 204.6C142.297 204.878 141.956 205.12 141.551 205.328C141.158 205.537 140.736 205.704 140.285 205.831C139.846 205.947 139.413 206.005 138.985 206.005ZM144.897 205.831V196.727H146.683V198.6L146.371 198.808C146.486 198.404 146.712 198.034 147.047 197.699C147.382 197.352 147.781 197.074 148.244 196.866C148.706 196.646 149.18 196.537 149.666 196.537C150.359 196.537 150.937 196.675 151.4 196.953C151.862 197.219 152.209 197.629 152.44 198.184C152.671 198.739 152.787 199.438 152.787 200.282V205.831H151.001V200.404C151.001 199.883 150.931 199.456 150.793 199.12C150.654 198.774 150.44 198.525 150.151 198.375C149.862 198.213 149.504 198.144 149.076 198.167C148.729 198.167 148.411 198.225 148.122 198.34C147.833 198.444 147.579 198.594 147.359 198.791C147.151 198.987 146.984 199.219 146.856 199.485C146.741 199.739 146.683 200.016 146.683 200.317V205.831H145.799C145.648 205.831 145.498 205.831 145.348 205.831C145.197 205.831 145.047 205.831 144.897 205.831ZM160.521 205.831V193.693H165.688C166.382 193.693 167.018 193.866 167.596 194.213C168.185 194.548 168.654 195.011 169 195.6C169.347 196.178 169.521 196.831 169.521 197.56C169.521 198.219 169.347 198.831 169 199.398C168.654 199.964 168.191 200.421 167.613 200.768C167.035 201.103 166.394 201.271 165.688 201.271H162.394V205.831H160.521ZM167.735 205.831L164.648 200.352L166.573 199.918L170.006 205.849L167.735 205.831ZM162.394 199.467H165.862C166.197 199.467 166.498 199.386 166.764 199.224C167.029 199.051 167.238 198.82 167.388 198.531C167.538 198.23 167.613 197.901 167.613 197.542C167.613 197.138 167.515 196.785 167.318 196.485C167.133 196.173 166.868 195.93 166.521 195.756C166.186 195.583 165.804 195.496 165.376 195.496H162.394V199.467ZM175.881 206.005C174.991 206.005 174.193 205.802 173.488 205.398C172.794 204.982 172.245 204.421 171.841 203.716C171.436 202.999 171.234 202.184 171.234 201.271C171.234 200.357 171.436 199.548 171.841 198.843C172.245 198.126 172.794 197.566 173.488 197.161C174.193 196.745 174.991 196.537 175.881 196.537C176.76 196.537 177.546 196.745 178.239 197.161C178.944 197.566 179.499 198.126 179.904 198.843C180.309 199.548 180.511 200.357 180.511 201.271C180.511 202.184 180.309 202.999 179.904 203.716C179.499 204.421 178.944 204.982 178.239 205.398C177.546 205.802 176.76 206.005 175.881 206.005ZM175.881 204.375C176.424 204.375 176.91 204.242 177.338 203.976C177.765 203.698 178.101 203.328 178.343 202.866C178.586 202.392 178.702 201.86 178.69 201.271C178.702 200.67 178.586 200.138 178.343 199.675C178.101 199.201 177.765 198.831 177.338 198.566C176.91 198.3 176.424 198.167 175.881 198.167C175.338 198.167 174.846 198.305 174.407 198.583C173.979 198.849 173.644 199.219 173.401 199.693C173.158 200.155 173.043 200.681 173.054 201.271C173.043 201.86 173.158 202.392 173.401 202.866C173.644 203.328 173.979 203.698 174.407 203.976C174.846 204.242 175.338 204.375 175.881 204.375ZM183.644 209.82L185.483 205.571L185.5 206.993L180.957 196.727H183.038L185.881 203.421C185.939 203.537 186.009 203.716 186.089 203.959C186.17 204.19 186.24 204.421 186.298 204.652L185.847 204.756C185.939 204.513 186.026 204.271 186.107 204.028C186.199 203.785 186.286 203.542 186.367 203.3L188.743 196.727H190.858L187.113 205.831L185.569 209.82H183.644Z" fill="white"/>
<path d="M314.91 199.107V196.652H321.34V199.107H314.91ZM329 204.039C327.751 204.039 326.655 203.81 325.712 203.352C324.768 202.895 323.964 202.222 323.298 201.334L324.9 199.232C325.608 200.148 326.294 200.786 326.96 201.147C327.626 201.507 328.375 201.688 329.208 201.688C329.679 201.688 330.109 201.618 330.498 201.48C330.886 201.327 331.191 201.126 331.413 200.876C331.635 200.613 331.746 200.314 331.746 199.981C331.746 199.746 331.698 199.531 331.601 199.336C331.517 199.128 331.386 198.948 331.205 198.795C331.025 198.629 330.803 198.476 330.539 198.338C330.276 198.199 329.978 198.081 329.645 197.984C329.312 197.887 328.944 197.796 328.542 197.713C327.515 197.505 326.662 197.207 325.982 196.818C325.316 196.416 324.817 195.917 324.484 195.32C324.151 194.724 323.985 194.023 323.985 193.219C323.985 192.608 324.116 192.046 324.38 191.533C324.657 191.02 325.032 190.576 325.504 190.201C325.975 189.827 326.523 189.535 327.148 189.327C327.772 189.119 328.445 189.015 329.166 189.015C330.304 189.015 331.309 189.223 332.183 189.639C333.057 190.042 333.779 190.645 334.347 191.45L332.808 193.323C332.336 192.684 331.788 192.206 331.164 191.887C330.553 191.554 329.887 191.387 329.166 191.387C328.667 191.387 328.23 191.457 327.855 191.595C327.494 191.734 327.21 191.935 327.002 192.199C326.794 192.449 326.69 192.754 326.69 193.114C326.69 193.392 326.752 193.642 326.877 193.864C327.002 194.072 327.175 194.259 327.397 194.425C327.633 194.592 327.931 194.738 328.292 194.862C328.653 194.987 329.062 195.098 329.52 195.195C330.283 195.348 330.969 195.556 331.58 195.82C332.19 196.069 332.71 196.375 333.141 196.735C333.571 197.082 333.897 197.484 334.119 197.942C334.341 198.386 334.451 198.885 334.451 199.44C334.451 200.398 334.223 201.223 333.765 201.917C333.321 202.596 332.69 203.124 331.871 203.498C331.053 203.859 330.096 204.039 329 204.039ZM327.751 205.725L327.834 196.194L329.728 196.881L329.811 205.725H327.751ZM330.456 196.881L328.563 196.194L328.479 187.517H330.539L330.456 196.881ZM341.463 203.831C340.727 203.831 340.041 203.699 339.403 203.436C338.778 203.172 338.23 202.811 337.759 202.354C337.301 201.882 336.94 201.334 336.677 200.71C336.413 200.085 336.281 199.399 336.281 198.65C336.281 198.233 336.33 197.79 336.427 197.318C336.538 196.846 336.697 196.347 336.905 195.82C337.127 195.279 337.384 194.717 337.675 194.134C337.967 193.551 338.307 192.941 338.695 192.303L340.63 189.015H343.211L343.294 189.223L340.818 193.302C340.415 193.968 340.061 194.599 339.756 195.195C339.451 195.778 339.188 196.34 338.966 196.881C338.757 197.408 338.584 197.921 338.445 198.421L337.883 196.527C338.092 196.083 338.348 195.681 338.653 195.32C338.959 194.96 339.299 194.654 339.673 194.405C340.048 194.155 340.436 193.968 340.838 193.843C341.255 193.718 341.678 193.656 342.108 193.656C342.912 193.656 343.654 193.877 344.334 194.321C345.014 194.751 345.555 195.327 345.957 196.049C346.374 196.77 346.582 197.561 346.582 198.421C346.582 199.461 346.36 200.391 345.916 201.209C345.486 202.014 344.882 202.652 344.105 203.124C343.328 203.595 342.448 203.831 341.463 203.831ZM341.483 201.459C341.983 201.459 342.427 201.341 342.815 201.105C343.218 200.869 343.53 200.543 343.752 200.127C343.974 199.697 344.085 199.205 344.085 198.65C344.085 198.178 343.967 197.741 343.731 197.339C343.509 196.923 343.204 196.59 342.815 196.34C342.427 196.076 341.99 195.944 341.504 195.944C340.977 195.944 340.505 196.069 340.089 196.319C339.687 196.555 339.368 196.881 339.132 197.297C338.91 197.699 338.799 198.15 338.799 198.65C338.799 199.177 338.91 199.655 339.132 200.085C339.368 200.502 339.687 200.835 340.089 201.084C340.492 201.334 340.956 201.459 341.483 201.459ZM353.333 203.893C352.403 203.893 351.55 203.706 350.773 203.332C350.01 202.943 349.4 202.43 348.942 201.792C348.484 201.14 348.255 200.418 348.255 199.628C348.255 199.156 348.318 198.719 348.443 198.317C348.581 197.914 348.775 197.554 349.025 197.235C349.289 196.916 349.601 196.631 349.962 196.381C350.336 196.118 350.759 195.889 351.231 195.695L351.064 196.277C350.704 196.125 350.371 195.944 350.066 195.736C349.774 195.528 349.518 195.292 349.296 195.029C349.088 194.751 348.928 194.46 348.817 194.155C348.706 193.836 348.651 193.503 348.651 193.156C348.651 192.407 348.859 191.734 349.275 191.138C349.705 190.541 350.274 190.069 350.981 189.723C351.689 189.362 352.473 189.182 353.333 189.182C354.207 189.182 354.997 189.362 355.705 189.723C356.412 190.069 356.974 190.541 357.39 191.138C357.82 191.734 358.035 192.407 358.035 193.156C358.035 193.503 357.98 193.836 357.869 194.155C357.758 194.46 357.598 194.745 357.39 195.008C357.196 195.258 356.946 195.494 356.641 195.716C356.336 195.924 355.982 196.111 355.58 196.277L355.476 195.778C355.92 195.931 356.322 196.132 356.683 196.381C357.044 196.631 357.356 196.923 357.619 197.255C357.883 197.588 358.084 197.956 358.223 198.358C358.375 198.761 358.452 199.184 358.452 199.628C358.452 200.432 358.223 201.161 357.765 201.813C357.307 202.451 356.69 202.957 355.913 203.332C355.15 203.706 354.29 203.893 353.333 203.893ZM353.333 201.563C353.804 201.563 354.227 201.473 354.602 201.292C354.977 201.112 355.268 200.869 355.476 200.564C355.698 200.259 355.809 199.905 355.809 199.503C355.809 199.073 355.698 198.698 355.476 198.379C355.268 198.046 354.977 197.79 354.602 197.609C354.227 197.415 353.804 197.318 353.333 197.318C352.875 197.318 352.459 197.415 352.084 197.609C351.723 197.79 351.432 198.046 351.21 198.379C350.988 198.698 350.877 199.073 350.877 199.503C350.877 199.891 350.988 200.238 351.21 200.543C351.432 200.848 351.723 201.098 352.084 201.292C352.459 201.473 352.875 201.563 353.333 201.563ZM353.333 195.029C353.749 195.029 354.116 194.953 354.435 194.8C354.768 194.647 355.025 194.439 355.205 194.176C355.386 193.912 355.476 193.607 355.476 193.26C355.476 192.899 355.386 192.587 355.205 192.324C355.025 192.046 354.768 191.831 354.435 191.679C354.116 191.512 353.749 191.429 353.333 191.429C352.93 191.429 352.563 191.512 352.23 191.679C351.911 191.831 351.661 192.046 351.481 192.324C351.3 192.587 351.21 192.899 351.21 193.26C351.21 193.607 351.3 193.912 351.481 194.176C351.661 194.439 351.911 194.647 352.23 194.8C352.563 194.953 352.93 195.029 353.333 195.029ZM361.925 204.06C361.426 204.06 361.038 203.914 360.76 203.623C360.496 203.332 360.365 202.922 360.365 202.395C360.365 201.91 360.503 201.514 360.781 201.209C361.072 200.89 361.454 200.731 361.925 200.731C362.425 200.731 362.806 200.876 363.07 201.168C363.347 201.445 363.486 201.854 363.486 202.395C363.486 202.881 363.34 203.283 363.049 203.602C362.772 203.907 362.397 204.06 361.925 204.06ZM370.962 204.039C369.783 204.039 368.77 203.741 367.924 203.144C367.092 202.534 366.447 201.674 365.989 200.564C365.545 199.44 365.323 198.102 365.323 196.548C365.323 194.994 365.545 193.662 365.989 192.553C366.447 191.429 367.092 190.569 367.924 189.972C368.77 189.362 369.783 189.057 370.962 189.057C372.141 189.057 373.154 189.362 374 189.972C374.847 190.569 375.492 191.429 375.936 192.553C376.393 193.662 376.622 194.994 376.622 196.548C376.622 198.102 376.393 199.44 375.936 200.564C375.492 201.674 374.847 202.534 374 203.144C373.154 203.741 372.141 204.039 370.962 204.039ZM370.962 201.667C371.933 201.667 372.682 201.223 373.21 200.335C373.751 199.433 374.021 198.171 374.021 196.548C374.021 194.911 373.751 193.642 373.21 192.74C372.682 191.838 371.933 191.387 370.962 191.387C369.991 191.387 369.235 191.838 368.694 192.74C368.167 193.642 367.903 194.911 367.903 196.548C367.903 198.171 368.167 199.433 368.694 200.335C369.235 201.223 369.991 201.667 370.962 201.667ZM384.09 204.039C382.911 204.039 381.898 203.741 381.052 203.144C380.219 202.534 379.574 201.674 379.116 200.564C378.673 199.44 378.451 198.102 378.451 196.548C378.451 194.994 378.673 193.662 379.116 192.553C379.574 191.429 380.219 190.569 381.052 189.972C381.898 189.362 382.911 189.057 384.09 189.057C385.269 189.057 386.282 189.362 387.128 189.972C387.974 190.569 388.619 191.429 389.063 192.553C389.521 193.662 389.75 194.994 389.75 196.548C389.75 198.102 389.521 199.44 389.063 200.564C388.619 201.674 387.974 202.534 387.128 203.144C386.282 203.741 385.269 204.039 384.09 204.039ZM384.09 201.667C385.061 201.667 385.81 201.223 386.337 200.335C386.878 199.433 387.149 198.171 387.149 196.548C387.149 194.911 386.878 193.642 386.337 192.74C385.81 191.838 385.061 191.387 384.09 191.387C383.119 191.387 382.363 191.838 381.822 192.74C381.294 193.642 381.031 194.911 381.031 196.548C381.031 198.171 381.294 199.433 381.822 200.335C382.363 201.223 383.119 201.667 384.09 201.667Z" fill="white"/>
</g>
<g opacity="0.5">
<rect x="18.4364" y="96.9238" width="410.108" height="75.8781" rx="9.97091" fill="#1C1C1C"/>
<rect x="18.4364" y="96.9238" width="410.108" height="75.8781" rx="9.97091" stroke="#262626" stroke-width="0.867036"/>
<rect x="38.8115" y="115.788" width="38.1496" height="38.1496" rx="19.0748" fill="#CAFF33"/>
<path fill-rule="evenodd" clip-rule="evenodd" d="M61.2159 126.789C60.9226 127.104 60.9409 127.598 61.2567 127.891L63.4421 129.921L54.5046 129.921C54.0736 129.921 53.7243 130.27 53.7243 130.701C53.7243 131.132 54.0736 131.481 54.5046 131.481L63.4421 131.481L61.2567 133.511C60.9409 133.804 60.9226 134.298 61.2159 134.614C61.5091 134.929 62.0029 134.948 62.3187 134.654L65.9602 131.273C66.1192 131.125 66.2096 130.918 66.2096 130.701C66.2096 130.484 66.1192 130.277 65.9602 130.129L62.3187 126.748C62.0029 126.455 61.5091 126.473 61.2159 126.789ZM54.5562 135.112C54.263 134.796 53.7692 134.778 53.4534 135.071L49.8119 138.453C49.6528 138.6 49.5625 138.808 49.5625 139.025C49.5625 139.242 49.6528 139.449 49.8119 139.596L53.4534 142.978C53.7692 143.271 54.263 143.253 54.5562 142.937C54.8495 142.621 54.8312 142.127 54.5154 141.834L52.33 139.805H61.2675C61.6985 139.805 62.0478 139.456 62.0478 139.025C62.0478 138.594 61.6985 138.244 61.2675 138.244H52.33L54.5154 136.215C54.8312 135.922 54.8495 135.428 54.5562 135.112Z" fill="#1C1C1C"/>
<path d="M89.2209 127.363V117.624H86.0995V116.438H93.6844V117.624H90.4382V127.363H89.2209ZM94.3453 127.363V119.216H95.5158L95.5471 121.385L95.4222 121.089C95.5367 120.725 95.7187 120.387 95.9684 120.074C96.2285 119.762 96.5355 119.513 96.8892 119.325C97.243 119.138 97.6331 119.044 98.0597 119.044C98.2366 119.044 98.4031 119.06 98.5591 119.091C98.7152 119.112 98.8453 119.143 98.9493 119.185L98.6216 120.496C98.4863 120.433 98.3458 120.392 98.2002 120.371C98.0649 120.34 97.9349 120.324 97.81 120.324C97.4563 120.324 97.1389 120.387 96.858 120.511C96.5771 120.636 96.3378 120.813 96.1401 121.042C95.9424 121.261 95.7916 121.516 95.6875 121.807C95.5835 122.098 95.5314 122.41 95.5314 122.743V127.363H94.3453ZM103.001 127.519C102.293 127.519 101.653 127.337 101.081 126.973C100.509 126.598 100.056 126.093 99.7232 125.459C99.3902 124.814 99.2238 124.085 99.2238 123.274C99.2238 122.452 99.3954 121.724 99.7388 121.089C100.082 120.454 100.54 119.955 101.112 119.591C101.695 119.227 102.345 119.044 103.063 119.044C103.49 119.044 103.885 119.107 104.249 119.232C104.613 119.357 104.936 119.533 105.217 119.762C105.508 119.981 105.747 120.241 105.935 120.543C106.132 120.834 106.268 121.151 106.34 121.495L105.997 121.323L106.044 119.216H107.214V127.363H106.028V125.365L106.34 125.162C106.268 125.474 106.127 125.776 105.919 126.067C105.711 126.348 105.456 126.598 105.154 126.817C104.863 127.035 104.53 127.207 104.155 127.332C103.791 127.456 103.406 127.519 103.001 127.519ZM103.266 126.395C103.807 126.395 104.291 126.265 104.717 126.005C105.144 125.734 105.477 125.365 105.716 124.897C105.966 124.418 106.091 123.877 106.091 123.274C106.091 122.67 105.966 122.135 105.716 121.666C105.477 121.198 105.144 120.829 104.717 120.558C104.291 120.288 103.807 120.153 103.266 120.153C102.714 120.153 102.225 120.288 101.799 120.558C101.383 120.829 101.05 121.198 100.8 121.666C100.561 122.135 100.441 122.67 100.441 123.274C100.441 123.867 100.561 124.403 100.8 124.881C101.039 125.35 101.372 125.719 101.799 125.989C102.225 126.26 102.714 126.395 103.266 126.395ZM109.495 127.363V119.216H110.65L110.696 120.917L110.509 120.995C110.613 120.642 110.816 120.319 111.118 120.028C111.42 119.736 111.779 119.502 112.195 119.325C112.621 119.138 113.058 119.044 113.506 119.044C114.109 119.044 114.614 119.164 115.02 119.403C115.425 119.643 115.732 120.012 115.94 120.511C116.148 121.011 116.252 121.646 116.252 122.415V127.363H115.066V122.478C115.066 121.937 114.994 121.495 114.848 121.151C114.713 120.798 114.499 120.537 114.208 120.371C113.917 120.205 113.558 120.127 113.131 120.137C112.777 120.137 112.45 120.199 112.148 120.324C111.846 120.439 111.586 120.6 111.368 120.808C111.149 121.016 110.977 121.255 110.853 121.526C110.728 121.796 110.665 122.088 110.665 122.4V127.363H110.088C110.015 127.363 109.932 127.363 109.838 127.363C109.744 127.363 109.63 127.363 109.495 127.363ZM121.156 127.519C120.459 127.519 119.834 127.389 119.283 127.129C118.731 126.869 118.294 126.525 117.972 126.099L118.799 125.381C119.101 125.745 119.454 126.021 119.86 126.208C120.276 126.395 120.739 126.489 121.249 126.489C121.509 126.489 121.743 126.463 121.952 126.411C122.16 126.348 122.342 126.26 122.498 126.145C122.654 126.031 122.774 125.896 122.857 125.74C122.94 125.584 122.982 125.412 122.982 125.225C122.982 124.881 122.831 124.595 122.529 124.366C122.394 124.273 122.201 124.179 121.952 124.085C121.702 123.981 121.4 123.883 121.046 123.789C120.464 123.622 119.98 123.456 119.595 123.289C119.21 123.113 118.908 122.91 118.69 122.681C118.534 122.494 118.414 122.291 118.331 122.072C118.258 121.854 118.222 121.614 118.222 121.354C118.222 121.021 118.289 120.714 118.424 120.433C118.57 120.153 118.768 119.908 119.018 119.7C119.278 119.481 119.579 119.32 119.923 119.216C120.276 119.102 120.656 119.044 121.062 119.044C121.447 119.044 121.827 119.096 122.201 119.201C122.576 119.305 122.924 119.455 123.247 119.653C123.569 119.851 123.845 120.085 124.074 120.355L123.356 121.136C123.158 120.928 122.94 120.74 122.701 120.574C122.461 120.407 122.206 120.277 121.936 120.184C121.676 120.09 121.405 120.043 121.124 120.043C120.875 120.043 120.641 120.074 120.422 120.137C120.214 120.199 120.032 120.288 119.876 120.402C119.73 120.506 119.616 120.636 119.533 120.792C119.46 120.948 119.423 121.12 119.423 121.307C119.423 121.463 119.454 121.604 119.517 121.729C119.579 121.854 119.668 121.963 119.782 122.057C119.928 122.171 120.131 122.28 120.391 122.384C120.661 122.478 120.994 122.577 121.39 122.681C121.848 122.806 122.232 122.936 122.545 123.071C122.867 123.196 123.132 123.347 123.341 123.524C123.621 123.732 123.819 123.971 123.934 124.241C124.058 124.512 124.121 124.819 124.121 125.162C124.121 125.62 123.991 126.026 123.731 126.38C123.481 126.733 123.132 127.014 122.685 127.222C122.238 127.42 121.728 127.519 121.156 127.519ZM129.139 127.519C128.431 127.519 127.791 127.337 127.219 126.973C126.647 126.598 126.194 126.093 125.861 125.459C125.528 124.814 125.362 124.085 125.362 123.274C125.362 122.452 125.534 121.724 125.877 121.089C126.22 120.454 126.678 119.955 127.25 119.591C127.833 119.227 128.483 119.044 129.201 119.044C129.628 119.044 130.023 119.107 130.387 119.232C130.751 119.357 131.074 119.533 131.355 119.762C131.646 119.981 131.885 120.241 132.073 120.543C132.27 120.834 132.406 121.151 132.478 121.495L132.135 121.323L132.182 119.216H133.352V127.363H132.166V125.365L132.478 125.162C132.406 125.474 132.265 125.776 132.057 126.067C131.849 126.348 131.594 126.598 131.292 126.817C131.001 127.035 130.668 127.207 130.294 127.332C129.929 127.456 129.544 127.519 129.139 127.519ZM129.404 126.395C129.945 126.395 130.429 126.265 130.855 126.005C131.282 125.734 131.615 125.365 131.854 124.897C132.104 124.418 132.229 123.877 132.229 123.274C132.229 122.67 132.104 122.135 131.854 121.666C131.615 121.198 131.282 120.829 130.855 120.558C130.429 120.288 129.945 120.153 129.404 120.153C128.853 120.153 128.364 120.288 127.937 120.558C127.521 120.829 127.188 121.198 126.938 121.666C126.699 122.135 126.579 122.67 126.579 123.274C126.579 123.867 126.699 124.403 126.938 124.881C127.177 125.35 127.51 125.719 127.937 125.989C128.364 126.26 128.853 126.395 129.404 126.395ZM139.066 127.519C138.296 127.519 137.61 127.337 137.006 126.973C136.403 126.598 135.924 126.093 135.57 125.459C135.227 124.814 135.055 124.085 135.055 123.274C135.055 122.462 135.227 121.739 135.57 121.105C135.924 120.459 136.403 119.955 137.006 119.591C137.61 119.227 138.302 119.044 139.082 119.044C139.779 119.044 140.414 119.185 140.986 119.466C141.558 119.736 142.016 120.116 142.359 120.605L141.673 121.448C141.475 121.188 141.236 120.959 140.955 120.761C140.684 120.563 140.388 120.413 140.065 120.309C139.753 120.194 139.441 120.137 139.129 120.137C138.577 120.137 138.083 120.277 137.646 120.558C137.209 120.829 136.861 121.198 136.6 121.666C136.351 122.135 136.226 122.67 136.226 123.274C136.226 123.877 136.351 124.418 136.6 124.897C136.861 125.365 137.209 125.734 137.646 126.005C138.083 126.276 138.572 126.411 139.113 126.411C139.425 126.411 139.732 126.364 140.034 126.27C140.336 126.166 140.622 126.021 140.892 125.833C141.163 125.646 141.413 125.412 141.641 125.131L142.328 125.974C141.974 126.442 141.501 126.817 140.908 127.097C140.315 127.378 139.701 127.519 139.066 127.519ZM144.971 127.363V117.078H146.142V127.363H144.971ZM143.13 120.34V119.216H148.202V120.34H143.13ZM149.951 127.363V119.216H151.122V127.363H149.951ZM150.529 117.453C150.237 117.453 150.014 117.38 149.858 117.234C149.712 117.078 149.639 116.87 149.639 116.61C149.639 116.35 149.717 116.142 149.873 115.986C150.029 115.829 150.248 115.751 150.529 115.751C150.81 115.751 151.028 115.829 151.184 115.986C151.34 116.131 151.418 116.339 151.418 116.61C151.418 116.86 151.34 117.062 151.184 117.218C151.028 117.375 150.81 117.453 150.529 117.453ZM157.283 127.519C156.472 127.519 155.749 127.337 155.114 126.973C154.49 126.608 153.995 126.104 153.631 125.459C153.277 124.814 153.101 124.08 153.101 123.258C153.101 122.447 153.277 121.724 153.631 121.089C153.995 120.454 154.49 119.955 155.114 119.591C155.749 119.227 156.472 119.044 157.283 119.044C158.084 119.044 158.797 119.227 159.421 119.591C160.056 119.955 160.55 120.454 160.904 121.089C161.268 121.724 161.45 122.447 161.45 123.258C161.45 124.08 161.268 124.814 160.904 125.459C160.55 126.104 160.056 126.608 159.421 126.973C158.797 127.337 158.084 127.519 157.283 127.519ZM157.283 126.411C157.855 126.411 158.365 126.276 158.813 126.005C159.26 125.724 159.609 125.35 159.858 124.881C160.108 124.403 160.233 123.862 160.233 123.258C160.233 122.655 160.108 122.119 159.858 121.651C159.609 121.183 159.26 120.818 158.813 120.558C158.365 120.288 157.855 120.153 157.283 120.153C156.711 120.153 156.196 120.288 155.738 120.558C155.291 120.818 154.937 121.188 154.677 121.666C154.427 122.135 154.308 122.665 154.318 123.258C154.308 123.862 154.427 124.403 154.677 124.881C154.937 125.35 155.291 125.724 155.738 126.005C156.196 126.276 156.711 126.411 157.283 126.411ZM163.158 127.363V119.216H164.313L164.36 120.917L164.172 120.995C164.276 120.642 164.479 120.319 164.781 120.028C165.083 119.736 165.442 119.502 165.858 119.325C166.284 119.138 166.721 119.044 167.169 119.044C167.772 119.044 168.277 119.164 168.683 119.403C169.088 119.643 169.395 120.012 169.603 120.511C169.811 121.011 169.916 121.646 169.916 122.415V127.363H168.729V122.478C168.729 121.937 168.657 121.495 168.511 121.151C168.376 120.798 168.162 120.537 167.871 120.371C167.58 120.205 167.221 120.127 166.794 120.137C166.44 120.137 166.113 120.199 165.811 120.324C165.509 120.439 165.249 120.6 165.031 120.808C164.812 121.016 164.64 121.255 164.516 121.526C164.391 121.796 164.328 122.088 164.328 122.4V127.363H163.751C163.678 127.363 163.595 127.363 163.501 127.363C163.408 127.363 163.293 127.363 163.158 127.363Z" fill="white"/>
<path d="M87.3307 153.363V141.224H89.1689L93.5907 148.421L92.7064 148.403L97.1803 141.224H98.9143V153.363H97.0415V148.386C97.0415 147.346 97.0647 146.409 97.1109 145.577C97.1687 144.744 97.2612 143.918 97.3884 143.097L97.6311 143.739L93.6601 149.877H92.5156L88.666 143.808L88.8567 143.097C88.9839 143.872 89.0706 144.669 89.1168 145.49C89.1746 146.299 89.2035 147.265 89.2035 148.386V153.363H87.3307ZM105.37 153.536C104.618 153.536 103.93 153.328 103.306 152.912C102.693 152.496 102.202 151.929 101.832 151.213C101.462 150.496 101.277 149.687 101.277 148.785C101.277 147.872 101.462 147.062 101.832 146.357C102.214 145.64 102.722 145.08 103.358 144.675C104.005 144.27 104.728 144.068 105.526 144.068C106 144.068 106.433 144.138 106.826 144.276C107.219 144.415 107.56 144.612 107.849 144.866C108.15 145.109 108.393 145.392 108.578 145.716C108.774 146.039 108.896 146.386 108.942 146.756L108.543 146.617V144.259H110.346V153.363H108.543V151.195L108.959 151.074C108.89 151.386 108.745 151.692 108.526 151.993C108.317 152.282 108.046 152.542 107.711 152.773C107.387 153.004 107.023 153.189 106.618 153.328C106.225 153.467 105.809 153.536 105.37 153.536ZM105.838 151.889C106.381 151.889 106.861 151.756 107.277 151.49C107.693 151.224 108.017 150.86 108.248 150.398C108.491 149.924 108.612 149.386 108.612 148.785C108.612 148.195 108.491 147.669 108.248 147.207C108.017 146.744 107.693 146.38 107.277 146.114C106.861 145.848 106.381 145.716 105.838 145.716C105.306 145.716 104.832 145.848 104.416 146.114C104.011 146.38 103.688 146.744 103.445 147.207C103.214 147.669 103.098 148.195 103.098 148.785C103.098 149.386 103.214 149.924 103.445 150.398C103.688 150.86 104.011 151.224 104.416 151.49C104.832 151.756 105.306 151.889 105.838 151.889ZM112.84 153.363V144.259H114.644V147.12L114.47 146.427C114.597 145.987 114.811 145.588 115.112 145.23C115.424 144.872 115.777 144.588 116.17 144.38C116.574 144.172 116.99 144.068 117.418 144.068C117.615 144.068 117.8 144.086 117.973 144.12C118.158 144.155 118.302 144.195 118.407 144.242L117.938 146.184C117.8 146.126 117.644 146.08 117.47 146.045C117.308 145.999 117.146 145.976 116.985 145.976C116.672 145.976 116.372 146.039 116.083 146.166C115.805 146.282 115.557 146.45 115.337 146.669C115.129 146.877 114.962 147.126 114.834 147.415C114.707 147.692 114.644 147.999 114.644 148.334V153.363H112.84ZM121.464 150.519L121.377 148.577L125.73 144.259H128.14L121.464 150.519ZM119.834 153.363V140.531H121.62V153.363H119.834ZM125.973 153.363L122.539 149.357L123.805 148.195L128.262 153.363H125.973ZM138.746 153.536C138.087 153.536 137.475 153.449 136.908 153.276C136.353 153.103 135.845 152.843 135.382 152.496C134.931 152.137 134.527 151.698 134.168 151.178L135.452 149.704C136.018 150.513 136.561 151.074 137.082 151.386C137.602 151.698 138.22 151.854 138.937 151.854C139.376 151.854 139.775 151.785 140.134 151.646C140.492 151.507 140.775 151.317 140.983 151.074C141.191 150.831 141.295 150.554 141.295 150.241C141.295 150.033 141.261 149.837 141.191 149.652C141.122 149.467 141.012 149.299 140.862 149.149C140.723 148.999 140.538 148.86 140.307 148.733C140.087 148.606 139.827 148.496 139.527 148.403C139.226 148.299 138.879 148.213 138.486 148.143C137.862 148.016 137.319 147.848 136.856 147.64C136.394 147.432 136.007 147.172 135.694 146.86C135.382 146.548 135.151 146.195 135.001 145.802C134.85 145.398 134.775 144.947 134.775 144.45C134.775 143.964 134.879 143.513 135.087 143.097C135.307 142.681 135.602 142.323 135.972 142.022C136.353 141.71 136.798 141.473 137.307 141.311C137.816 141.138 138.365 141.051 138.954 141.051C139.579 141.051 140.151 141.132 140.671 141.294C141.191 141.455 141.654 141.698 142.058 142.022C142.463 142.334 142.798 142.721 143.064 143.184L141.746 144.484C141.515 144.103 141.255 143.785 140.966 143.531C140.677 143.265 140.359 143.068 140.012 142.941C139.665 142.802 139.296 142.733 138.902 142.733C138.452 142.733 138.059 142.802 137.723 142.941C137.388 143.08 137.122 143.276 136.926 143.531C136.741 143.773 136.648 144.062 136.648 144.398C136.648 144.64 136.694 144.866 136.787 145.074C136.879 145.27 137.018 145.45 137.203 145.611C137.4 145.762 137.66 145.901 137.983 146.028C138.307 146.143 138.694 146.247 139.145 146.34C139.781 146.479 140.348 146.658 140.845 146.877C141.342 147.085 141.764 147.334 142.11 147.623C142.457 147.912 142.717 148.236 142.891 148.594C143.076 148.952 143.168 149.34 143.168 149.756C143.168 150.53 142.989 151.201 142.631 151.767C142.272 152.334 141.764 152.773 141.105 153.085C140.446 153.386 139.66 153.536 138.746 153.536ZM145.336 153.363V144.259H147.14V146.201L146.81 146.409C146.903 146.109 147.047 145.82 147.244 145.542C147.452 145.265 147.7 145.022 147.989 144.814C148.29 144.594 148.608 144.421 148.943 144.294C149.29 144.166 149.643 144.103 150.001 144.103C150.521 144.103 150.978 144.19 151.371 144.363C151.764 144.536 152.088 144.796 152.342 145.143C152.596 145.49 152.781 145.924 152.897 146.444L152.619 146.374L152.741 146.08C152.868 145.814 153.041 145.565 153.261 145.334C153.492 145.091 153.752 144.877 154.041 144.692C154.33 144.507 154.637 144.363 154.96 144.259C155.284 144.155 155.602 144.103 155.914 144.103C156.596 144.103 157.157 144.242 157.596 144.519C158.047 144.796 158.382 145.218 158.602 145.785C158.833 146.351 158.949 147.057 158.949 147.9V153.363H157.145V148.005C157.145 147.484 157.076 147.062 156.937 146.739C156.81 146.403 156.614 146.155 156.348 145.993C156.082 145.831 155.741 145.75 155.325 145.75C155.001 145.75 154.694 145.808 154.405 145.924C154.128 146.028 153.885 146.178 153.677 146.374C153.469 146.571 153.307 146.802 153.192 147.068C153.076 147.322 153.018 147.606 153.018 147.918V153.363H151.215V147.97C151.215 147.496 151.145 147.097 151.007 146.773C150.868 146.438 150.666 146.184 150.4 146.01C150.134 145.837 149.81 145.75 149.429 145.75C149.105 145.75 148.804 145.808 148.527 145.924C148.249 146.028 148.007 146.178 147.799 146.374C147.591 146.559 147.429 146.785 147.313 147.051C147.197 147.305 147.14 147.583 147.14 147.883V153.363H145.336ZM161.635 153.363V144.259H163.421V153.363H161.635ZM162.502 142.247C162.12 142.247 161.826 142.149 161.617 141.953C161.409 141.756 161.305 141.479 161.305 141.12C161.305 140.785 161.409 140.513 161.617 140.305C161.837 140.097 162.132 139.993 162.502 139.993C162.883 139.993 163.178 140.091 163.386 140.288C163.594 140.484 163.698 140.762 163.698 141.12C163.698 141.455 163.588 141.727 163.369 141.935C163.161 142.143 162.872 142.247 162.502 142.247ZM167.293 153.363V141.935H169.079V153.363H167.293ZM165.403 145.993V144.259H171.195V145.993H165.403ZM172.821 153.363V140.531H174.608V146.132L174.295 146.34C174.411 145.935 174.636 145.565 174.972 145.23C175.307 144.883 175.706 144.606 176.168 144.398C176.631 144.178 177.105 144.068 177.59 144.068C178.284 144.068 178.862 144.207 179.324 144.484C179.787 144.75 180.133 145.161 180.365 145.716C180.596 146.27 180.711 146.97 180.711 147.814V153.363H178.925V147.935C178.925 147.415 178.856 146.987 178.717 146.652C178.579 146.305 178.365 146.057 178.076 145.906C177.787 145.744 177.428 145.675 177.001 145.698C176.654 145.698 176.336 145.756 176.047 145.872C175.758 145.976 175.503 146.126 175.284 146.322C175.076 146.519 174.908 146.75 174.781 147.016C174.665 147.27 174.608 147.548 174.608 147.848V153.363H173.723C173.573 153.363 173.423 153.363 173.272 153.363C173.122 153.363 172.972 153.363 172.821 153.363Z" fill="white"/>
<path d="M332.251 146.639V144.184H338.681V146.639H332.251ZM346.34 151.571C345.092 151.571 343.996 151.342 343.053 150.884C342.109 150.426 341.305 149.754 340.639 148.866L342.241 146.764C342.949 147.68 343.635 148.318 344.301 148.678C344.967 149.039 345.716 149.219 346.548 149.219C347.02 149.219 347.45 149.15 347.839 149.011C348.227 148.859 348.532 148.658 348.754 148.408C348.976 148.144 349.087 147.846 349.087 147.513C349.087 147.277 349.039 147.062 348.942 146.868C348.858 146.66 348.726 146.48 348.546 146.327C348.366 146.161 348.144 146.008 347.88 145.869C347.617 145.731 347.318 145.613 346.985 145.516C346.653 145.418 346.285 145.328 345.883 145.245C344.856 145.037 344.003 144.739 343.323 144.35C342.657 143.948 342.158 143.448 341.825 142.852C341.492 142.255 341.325 141.555 341.325 140.75C341.325 140.14 341.457 139.578 341.721 139.065C341.998 138.551 342.373 138.108 342.845 137.733C343.316 137.358 343.864 137.067 344.488 136.859C345.113 136.651 345.785 136.547 346.507 136.547C347.644 136.547 348.65 136.755 349.524 137.171C350.398 137.573 351.119 138.177 351.688 138.982L350.148 140.854C349.677 140.216 349.129 139.738 348.505 139.419C347.894 139.086 347.228 138.919 346.507 138.919C346.007 138.919 345.57 138.988 345.196 139.127C344.835 139.266 344.551 139.467 344.343 139.731C344.135 139.98 344.031 140.286 344.031 140.646C344.031 140.924 344.093 141.173 344.218 141.395C344.343 141.603 344.516 141.791 344.738 141.957C344.974 142.124 345.272 142.269 345.633 142.394C345.994 142.519 346.403 142.63 346.861 142.727C347.624 142.88 348.31 143.088 348.921 143.351C349.531 143.601 350.051 143.906 350.481 144.267C350.911 144.614 351.237 145.016 351.459 145.474C351.681 145.918 351.792 146.417 351.792 146.972C351.792 147.929 351.563 148.755 351.106 149.448C350.662 150.128 350.031 150.655 349.212 151.03C348.394 151.391 347.436 151.571 346.34 151.571ZM345.092 153.256L345.175 143.726L347.069 144.413L347.152 153.256H345.092ZM347.797 144.413L345.903 143.726L345.82 135.049H347.88L347.797 144.413ZM358.803 151.363C358.068 151.363 357.382 151.231 356.743 150.967C356.119 150.704 355.571 150.343 355.099 149.885C354.642 149.414 354.281 148.866 354.017 148.241C353.754 147.617 353.622 146.931 353.622 146.181C353.622 145.765 353.671 145.321 353.768 144.85C353.879 144.378 354.038 143.879 354.246 143.351C354.468 142.81 354.725 142.249 355.016 141.666C355.308 141.083 355.647 140.473 356.036 139.835L357.971 136.547H360.551L360.635 136.755L358.158 140.834C357.756 141.499 357.402 142.131 357.097 142.727C356.792 143.31 356.528 143.872 356.306 144.413C356.098 144.94 355.925 145.453 355.786 145.952L355.224 144.059C355.432 143.615 355.689 143.213 355.994 142.852C356.299 142.491 356.639 142.186 357.014 141.936C357.388 141.687 357.777 141.499 358.179 141.375C358.595 141.25 359.018 141.187 359.449 141.187C360.253 141.187 360.995 141.409 361.675 141.853C362.355 142.283 362.896 142.859 363.298 143.58C363.714 144.302 363.922 145.092 363.922 145.952C363.922 146.993 363.7 147.922 363.257 148.741C362.826 149.545 362.223 150.184 361.446 150.655C360.669 151.127 359.788 151.363 358.803 151.363ZM358.824 148.991C359.324 148.991 359.768 148.873 360.156 148.637C360.558 148.401 360.87 148.075 361.092 147.659C361.314 147.229 361.425 146.736 361.425 146.181C361.425 145.71 361.307 145.273 361.072 144.87C360.85 144.454 360.544 144.121 360.156 143.872C359.768 143.608 359.331 143.476 358.845 143.476C358.318 143.476 357.846 143.601 357.43 143.851C357.028 144.087 356.709 144.413 356.473 144.829C356.251 145.231 356.14 145.682 356.14 146.181C356.14 146.709 356.251 147.187 356.473 147.617C356.709 148.033 357.028 148.366 357.43 148.616C357.832 148.866 358.297 148.991 358.824 148.991ZM370.673 151.425C369.744 151.425 368.891 151.238 368.114 150.863C367.351 150.475 366.741 149.962 366.283 149.324C365.825 148.672 365.596 147.95 365.596 147.159C365.596 146.688 365.659 146.251 365.783 145.848C365.922 145.446 366.116 145.085 366.366 144.766C366.63 144.447 366.942 144.163 367.302 143.913C367.677 143.65 368.1 143.421 368.572 143.227L368.405 143.809C368.045 143.657 367.712 143.476 367.406 143.268C367.115 143.06 366.858 142.824 366.637 142.561C366.428 142.283 366.269 141.992 366.158 141.687C366.047 141.368 365.991 141.035 365.991 140.688C365.991 139.939 366.2 139.266 366.616 138.669C367.046 138.073 367.615 137.601 368.322 137.254C369.03 136.894 369.813 136.713 370.673 136.713C371.547 136.713 372.338 136.894 373.046 137.254C373.753 137.601 374.315 138.073 374.731 138.669C375.161 139.266 375.376 139.939 375.376 140.688C375.376 141.035 375.321 141.368 375.21 141.687C375.099 141.992 374.939 142.276 374.731 142.54C374.537 142.79 374.287 143.025 373.982 143.247C373.677 143.455 373.323 143.643 372.921 143.809L372.817 143.31C373.261 143.462 373.663 143.664 374.024 143.913C374.384 144.163 374.696 144.454 374.96 144.787C375.224 145.12 375.425 145.488 375.564 145.89C375.716 146.292 375.792 146.715 375.792 147.159C375.792 147.964 375.564 148.692 375.106 149.344C374.648 149.982 374.031 150.489 373.254 150.863C372.491 151.238 371.631 151.425 370.673 151.425ZM370.673 149.095C371.145 149.095 371.568 149.004 371.943 148.824C372.317 148.644 372.609 148.401 372.817 148.096C373.039 147.791 373.15 147.437 373.15 147.035C373.15 146.604 373.039 146.23 372.817 145.911C372.609 145.578 372.317 145.321 371.943 145.141C371.568 144.947 371.145 144.85 370.673 144.85C370.216 144.85 369.799 144.947 369.425 145.141C369.064 145.321 368.773 145.578 368.551 145.911C368.329 146.23 368.218 146.604 368.218 147.035C368.218 147.423 368.329 147.77 368.551 148.075C368.773 148.38 369.064 148.63 369.425 148.824C369.799 149.004 370.216 149.095 370.673 149.095ZM370.673 142.561C371.09 142.561 371.457 142.484 371.776 142.332C372.109 142.179 372.366 141.971 372.546 141.707C372.727 141.444 372.817 141.139 372.817 140.792C372.817 140.431 372.727 140.119 372.546 139.855C372.366 139.578 372.109 139.363 371.776 139.21C371.457 139.044 371.09 138.961 370.673 138.961C370.271 138.961 369.904 139.044 369.571 139.21C369.251 139.363 369.002 139.578 368.821 139.855C368.641 140.119 368.551 140.431 368.551 140.792C368.551 141.139 368.641 141.444 368.821 141.707C369.002 141.971 369.251 142.179 369.571 142.332C369.904 142.484 370.271 142.561 370.673 142.561ZM379.266 151.592C378.767 151.592 378.378 151.446 378.101 151.155C377.837 150.863 377.706 150.454 377.706 149.927C377.706 149.441 377.844 149.046 378.122 148.741C378.413 148.422 378.795 148.262 379.266 148.262C379.766 148.262 380.147 148.408 380.411 148.699C380.688 148.977 380.827 149.386 380.827 149.927C380.827 150.413 380.681 150.815 380.39 151.134C380.112 151.439 379.738 151.592 379.266 151.592ZM388.303 151.571C387.124 151.571 386.111 151.273 385.265 150.676C384.433 150.066 383.788 149.206 383.33 148.096C382.886 146.972 382.664 145.633 382.664 144.08C382.664 142.526 382.886 141.194 383.33 140.084C383.788 138.961 384.433 138.101 385.265 137.504C386.111 136.894 387.124 136.588 388.303 136.588C389.482 136.588 390.495 136.894 391.341 137.504C392.187 138.101 392.832 138.961 393.276 140.084C393.734 141.194 393.963 142.526 393.963 144.08C393.963 145.633 393.734 146.972 393.276 148.096C392.832 149.206 392.187 150.066 391.341 150.676C390.495 151.273 389.482 151.571 388.303 151.571ZM388.303 149.199C389.274 149.199 390.023 148.755 390.55 147.867C391.091 146.965 391.362 145.703 391.362 144.08C391.362 142.443 391.091 141.173 390.55 140.272C390.023 139.37 389.274 138.919 388.303 138.919C387.332 138.919 386.576 139.37 386.035 140.272C385.508 141.173 385.244 142.443 385.244 144.08C385.244 145.703 385.508 146.965 386.035 147.867C386.576 148.755 387.332 149.199 388.303 149.199ZM401.431 151.571C400.251 151.571 399.239 151.273 398.392 150.676C397.56 150.066 396.915 149.206 396.457 148.096C396.013 146.972 395.791 145.633 395.791 144.08C395.791 142.526 396.013 141.194 396.457 140.084C396.915 138.961 397.56 138.101 398.392 137.504C399.239 136.894 400.251 136.588 401.431 136.588C402.61 136.588 403.622 136.894 404.469 137.504C405.315 138.101 405.96 138.961 406.404 140.084C406.862 141.194 407.091 142.526 407.091 144.08C407.091 145.633 406.862 146.972 406.404 148.096C405.96 149.206 405.315 150.066 404.469 150.676C403.622 151.273 402.61 151.571 401.431 151.571ZM401.431 149.199C402.402 149.199 403.151 148.755 403.678 147.867C404.219 146.965 404.489 145.703 404.489 144.08C404.489 142.443 404.219 141.173 403.678 140.272C403.151 139.37 402.402 138.919 401.431 138.919C400.459 138.919 399.703 139.37 399.162 140.272C398.635 141.173 398.372 142.443 398.372 144.08C398.372 145.703 398.635 146.965 399.162 147.867C399.703 148.755 400.459 149.199 401.431 149.199Z" fill="white"/>
</g>
<rect x="1.09563" y="44.4557" width="444.789" height="75.8781" rx="9.97091" fill="#1C1C1C"/>
<rect x="1.09563" y="44.4557" width="444.789" height="75.8781" rx="9.97091" stroke="#262626" stroke-width="0.867036"/>
<rect x="21.4707" y="63.3201" width="38.1496" height="38.1496" rx="19.0748" fill="#CAFF33"/>
<path fill-rule="evenodd" clip-rule="evenodd" d="M43.8756 74.3206C43.5823 74.6365 43.6006 75.1302 43.9164 75.4234L46.1018 77.4527L37.1643 77.4527C36.7333 77.4527 36.3839 77.8021 36.3839 78.2331C36.3839 78.664 36.7333 79.0134 37.1643 79.0134L46.1018 79.0134L43.9164 81.0427C43.6006 81.3359 43.5823 81.8297 43.8756 82.1455C44.1688 82.4613 44.6625 82.4796 44.9784 82.1863L48.6199 78.8049C48.7789 78.6572 48.8693 78.4501 48.8693 78.2331C48.8693 78.0161 48.7789 77.8089 48.6199 77.6612L44.9784 74.2798C44.6625 73.9866 44.1688 74.0048 43.8756 74.3206ZM37.2159 82.6442C36.9226 82.3284 36.4289 82.3101 36.1131 82.6033L32.4715 85.9848C32.3125 86.1324 32.2222 86.3396 32.2222 86.5566C32.2222 86.7736 32.3125 86.9808 32.4715 87.1284L36.1131 90.5099C36.4289 90.8031 36.9226 90.7848 37.2159 90.469C37.5091 90.1532 37.4908 89.6595 37.175 89.3662L34.9896 87.3369H43.9272C44.3581 87.3369 44.7075 86.9876 44.7075 86.5566C44.7075 86.1256 44.3581 85.7763 43.9272 85.7763H34.9896L37.175 83.747C37.4908 83.4537 37.5091 82.96 37.2159 82.6442Z" fill="#1C1C1C"/>
<path d="M71.8805 74.8948V65.1562H68.7592V63.9701H76.344V65.1562H73.0979V74.8948H71.8805ZM77.005 74.8948V66.7481H78.1755L78.2067 68.9174L78.0819 68.6209C78.1963 68.2567 78.3784 67.9186 78.6281 67.6065C78.8882 67.2943 79.1951 67.0446 79.5489 66.8574C79.9026 66.6701 80.2928 66.5764 80.7194 66.5764C80.8963 66.5764 81.0627 66.592 81.2188 66.6233C81.3749 66.6441 81.5049 66.6753 81.609 66.7169L81.2812 68.0279C81.146 67.9654 81.0055 67.9238 80.8599 67.903C80.7246 67.8718 80.5945 67.8562 80.4697 67.8562C80.1159 67.8562 79.7986 67.9186 79.5177 68.0435C79.2368 68.1683 78.9975 68.3452 78.7998 68.5741C78.6021 68.7926 78.4512 69.0475 78.3472 69.3388C78.2431 69.6301 78.1911 69.9423 78.1911 70.2752V74.8948H77.005ZM85.6602 75.0508C84.9527 75.0508 84.3129 74.8688 83.7406 74.5046C83.1684 74.13 82.7158 73.6254 82.3828 72.9908C82.0499 72.3457 81.8834 71.6174 81.8834 70.8058C81.8834 69.9839 82.0551 69.2556 82.3985 68.6209C82.7418 67.9862 83.1996 67.4868 83.7718 67.1227C84.3545 66.7585 85.0048 66.5764 85.7227 66.5764C86.1492 66.5764 86.5446 66.6389 86.9088 66.7637C87.2729 66.8886 87.5955 67.0654 87.8764 67.2943C88.1677 67.5128 88.407 67.7729 88.5943 68.0747C88.792 68.366 88.9272 68.6833 89.0001 69.0267L88.6567 68.855L88.7035 66.7481H89.874V74.8948H88.6879V72.8971L89.0001 72.6942C88.9272 73.0064 88.7868 73.3081 88.5787 73.5994C88.3706 73.8803 88.1157 74.13 87.814 74.3485C87.5226 74.567 87.1897 74.7387 86.8151 74.8636C86.451 74.9884 86.066 75.0508 85.6602 75.0508ZM85.9256 73.9272C86.4666 73.9272 86.9504 73.7971 87.377 73.537C87.8036 73.2665 88.1365 72.8971 88.3758 72.4289C88.6255 71.9503 88.7504 71.4093 88.7504 70.8058C88.7504 70.2024 88.6255 69.6665 88.3758 69.1983C88.1365 68.7301 87.8036 68.3608 87.377 68.0903C86.9504 67.8198 86.4666 67.6845 85.9256 67.6845C85.3741 67.6845 84.8851 67.8198 84.4585 68.0903C84.0424 68.3608 83.7094 68.7301 83.4597 69.1983C83.2204 69.6665 83.1007 70.2024 83.1007 70.8058C83.1007 71.3989 83.2204 71.9347 83.4597 72.4133C83.699 72.8815 84.0319 73.2509 84.4585 73.5214C84.8851 73.7919 85.3741 73.9272 85.9256 73.9272ZM92.1544 74.8948V66.7481H93.3093L93.3561 68.4492L93.1689 68.5273C93.2729 68.1735 93.4758 67.851 93.7775 67.5597C94.0793 67.2683 94.4382 67.0342 94.8544 66.8574C95.281 66.6701 95.718 66.5764 96.1653 66.5764C96.7688 66.5764 97.2734 66.6961 97.6792 66.9354C98.085 67.1747 98.3919 67.544 98.6 68.0435C98.8081 68.5429 98.9121 69.1775 98.9121 69.9475V74.8948H97.726V70.0099C97.726 69.4689 97.6532 69.0267 97.5075 68.6833C97.3723 68.3296 97.159 68.0695 96.8676 67.903C96.5763 67.7365 96.2174 67.6585 95.7908 67.6689C95.437 67.6689 95.1093 67.7313 94.8076 67.8562C94.5058 67.9706 94.2457 68.1319 94.0272 68.34C93.8087 68.5481 93.6371 68.7874 93.5122 69.0579C93.3874 69.3284 93.3249 69.6197 93.3249 69.9319V74.8948H92.7475C92.6747 74.8948 92.5914 74.8948 92.4978 74.8948C92.4041 74.8948 92.2897 74.8948 92.1544 74.8948ZM103.815 75.0508C103.118 75.0508 102.494 74.9208 101.942 74.6607C101.391 74.4006 100.954 74.0572 100.632 73.6306L101.459 72.9127C101.76 73.2769 102.114 73.5526 102.52 73.7399C102.936 73.9272 103.399 74.0208 103.909 74.0208C104.169 74.0208 104.403 73.9948 104.611 73.9428C104.819 73.8803 105.001 73.7919 105.157 73.6775C105.314 73.563 105.433 73.4278 105.516 73.2717C105.6 73.1156 105.641 72.9439 105.641 72.7567C105.641 72.4133 105.49 72.1272 105.189 71.8983C105.053 71.8047 104.861 71.711 104.611 71.6174C104.362 71.5133 104.06 71.4145 103.706 71.3209C103.123 71.1544 102.64 70.9879 102.255 70.8214C101.87 70.6446 101.568 70.4417 101.349 70.2128C101.193 70.0255 101.074 69.8226 100.99 69.6041C100.918 69.3856 100.881 69.1463 100.881 68.8862C100.881 68.5533 100.949 68.2463 101.084 67.9654C101.23 67.6845 101.427 67.44 101.677 67.2319C101.937 67.0134 102.239 66.8521 102.582 66.7481C102.936 66.6337 103.316 66.5764 103.722 66.5764C104.107 66.5764 104.486 66.6285 104.861 66.7325C105.235 66.8365 105.584 66.9874 105.907 67.1851C106.229 67.3828 106.505 67.6169 106.734 67.8874L106.016 68.6677C105.818 68.4596 105.6 68.2724 105.36 68.1059C105.121 67.9394 104.866 67.8094 104.596 67.7157C104.336 67.6221 104.065 67.5753 103.784 67.5753C103.534 67.5753 103.3 67.6065 103.082 67.6689C102.874 67.7313 102.692 67.8198 102.536 67.9342C102.39 68.0383 102.275 68.1683 102.192 68.3244C102.119 68.4804 102.083 68.6521 102.083 68.8394C102.083 68.9955 102.114 69.1359 102.177 69.2608C102.239 69.3856 102.327 69.4949 102.442 69.5885C102.588 69.703 102.79 69.8122 103.051 69.9163C103.321 70.0099 103.654 70.1087 104.049 70.2128C104.507 70.3376 104.892 70.4677 105.204 70.6029C105.527 70.7278 105.792 70.8787 106 71.0555C106.281 71.2636 106.479 71.5029 106.593 71.7734C106.718 72.044 106.781 72.3509 106.781 72.6942C106.781 73.152 106.65 73.5578 106.39 73.9116C106.141 74.2653 105.792 74.5462 105.345 74.7543C104.897 74.952 104.388 75.0508 103.815 75.0508ZM111.798 75.0508C111.091 75.0508 110.451 74.8688 109.879 74.5046C109.306 74.13 108.854 73.6254 108.521 72.9908C108.188 72.3457 108.022 71.6174 108.022 70.8058C108.022 69.9839 108.193 69.2556 108.537 68.6209C108.88 67.9862 109.338 67.4868 109.91 67.1227C110.493 66.7585 111.143 66.5764 111.861 66.5764C112.287 66.5764 112.683 66.6389 113.047 66.7637C113.411 66.8886 113.734 67.0654 114.014 67.2943C114.306 67.5128 114.545 67.7729 114.732 68.0747C114.93 68.366 115.065 68.6833 115.138 69.0267L114.795 68.855L114.842 66.7481H116.012V74.8948H114.826V72.8971L115.138 72.6942C115.065 73.0064 114.925 73.3081 114.717 73.5994C114.509 73.8803 114.254 74.13 113.952 74.3485C113.661 74.567 113.328 74.7387 112.953 74.8636C112.589 74.9884 112.204 75.0508 111.798 75.0508ZM112.064 73.9272C112.605 73.9272 113.088 73.7971 113.515 73.537C113.942 73.2665 114.275 72.8971 114.514 72.4289C114.764 71.9503 114.888 71.4093 114.888 70.8058C114.888 70.2024 114.764 69.6665 114.514 69.1983C114.275 68.7301 113.942 68.3608 113.515 68.0903C113.088 67.8198 112.605 67.6845 112.064 67.6845C111.512 67.6845 111.023 67.8198 110.597 68.0903C110.18 68.3608 109.847 68.7301 109.598 69.1983C109.358 69.6665 109.239 70.2024 109.239 70.8058C109.239 71.3989 109.358 71.9347 109.598 72.4133C109.837 72.8815 110.17 73.2509 110.597 73.5214C111.023 73.7919 111.512 73.9272 112.064 73.9272ZM121.726 75.0508C120.956 75.0508 120.269 74.8688 119.666 74.5046C119.062 74.13 118.584 73.6254 118.23 72.9908C117.887 72.3457 117.715 71.6174 117.715 70.8058C117.715 69.9943 117.887 69.2712 118.23 68.6365C118.584 67.9914 119.062 67.4868 119.666 67.1227C120.269 66.7585 120.961 66.5764 121.742 66.5764C122.439 66.5764 123.073 66.7169 123.646 66.9978C124.218 67.2683 124.676 67.6481 125.019 68.1371L124.332 68.9799C124.135 68.7197 123.895 68.4908 123.614 68.2932C123.344 68.0955 123.047 67.9446 122.725 67.8406C122.413 67.7261 122.101 67.6689 121.788 67.6689C121.237 67.6689 120.743 67.8094 120.306 68.0903C119.869 68.3608 119.52 68.7301 119.26 69.1983C119.01 69.6665 118.886 70.2024 118.886 70.8058C118.886 71.4093 119.01 71.9503 119.26 72.4289C119.52 72.8971 119.869 73.2665 120.306 73.537C120.743 73.8075 121.232 73.9428 121.773 73.9428C122.085 73.9428 122.392 73.8959 122.694 73.8023C122.995 73.6983 123.281 73.5526 123.552 73.3653C123.822 73.178 124.072 72.9439 124.301 72.663L124.988 73.5058C124.634 73.974 124.161 74.3485 123.568 74.6295C122.975 74.9104 122.361 75.0508 121.726 75.0508ZM127.631 74.8948V64.61H128.802V74.8948H127.631ZM125.789 67.8718V66.7481H130.862V67.8718H125.789ZM132.611 74.8948V66.7481H133.782V74.8948H132.611ZM133.188 64.9846C132.897 64.9846 132.673 64.9117 132.517 64.7661C132.372 64.61 132.299 64.4019 132.299 64.1418C132.299 63.8817 132.377 63.6736 132.533 63.5175C132.689 63.3615 132.908 63.2834 133.188 63.2834C133.469 63.2834 133.688 63.3615 133.844 63.5175C134 63.6632 134.078 63.8713 134.078 64.1418C134.078 64.3915 134 64.5944 133.844 64.7505C133.688 64.9065 133.469 64.9846 133.188 64.9846ZM139.943 75.0508C139.131 75.0508 138.408 74.8688 137.774 74.5046C137.149 74.1405 136.655 73.6358 136.291 72.9908C135.937 72.3457 135.76 71.6122 135.76 70.7902C135.76 69.9787 135.937 69.2556 136.291 68.6209C136.655 67.9862 137.149 67.4868 137.774 67.1227C138.408 66.7585 139.131 66.5764 139.943 66.5764C140.744 66.5764 141.457 66.7585 142.081 67.1227C142.716 67.4868 143.21 67.9862 143.564 68.6209C143.928 69.2556 144.11 69.9787 144.11 70.7902C144.11 71.6122 143.928 72.3457 143.564 72.9908C143.21 73.6358 142.716 74.1405 142.081 74.5046C141.457 74.8688 140.744 75.0508 139.943 75.0508ZM139.943 73.9428C140.515 73.9428 141.025 73.8075 141.472 73.537C141.92 73.2561 142.268 72.8815 142.518 72.4133C142.768 71.9347 142.892 71.3937 142.892 70.7902C142.892 70.1868 142.768 69.6509 142.518 69.1827C142.268 68.7145 141.92 68.3504 141.472 68.0903C141.025 67.8198 140.515 67.6845 139.943 67.6845C139.371 67.6845 138.856 67.8198 138.398 68.0903C137.95 68.3504 137.597 68.7197 137.337 69.1983C137.087 69.6665 136.967 70.1972 136.978 70.7902C136.967 71.3937 137.087 71.9347 137.337 72.4133C137.597 72.8815 137.95 73.2561 138.398 73.537C138.856 73.8075 139.371 73.9428 139.943 73.9428ZM145.818 74.8948V66.7481H146.972L147.019 68.4492L146.832 68.5273C146.936 68.1735 147.139 67.851 147.441 67.5597C147.742 67.2683 148.101 67.0342 148.517 66.8574C148.944 66.6701 149.381 66.5764 149.828 66.5764C150.432 66.5764 150.937 66.6961 151.342 66.9354C151.748 67.1747 152.055 67.544 152.263 68.0435C152.471 68.5429 152.575 69.1775 152.575 69.9475V74.8948H151.389V70.0099C151.389 69.4689 151.316 69.0267 151.171 68.6833C151.035 68.3296 150.822 68.0695 150.531 67.903C150.239 67.7365 149.88 67.6585 149.454 67.6689C149.1 67.6689 148.772 67.7313 148.471 67.8562C148.169 67.9706 147.909 68.1319 147.69 68.34C147.472 68.5481 147.3 68.7874 147.175 69.0579C147.05 69.3284 146.988 69.6197 146.988 69.9319V74.8948H146.411C146.338 74.8948 146.255 74.8948 146.161 74.8948C146.067 74.8948 145.953 74.8948 145.818 74.8948Z" fill="white"/>
<path d="M72.7302 101.068C72.3372 101.068 71.9615 101.016 71.6031 100.912C71.2447 100.808 70.9095 100.658 70.5973 100.461C70.2968 100.265 70.0251 100.034 69.7823 99.7676C69.5395 99.4902 69.3315 99.1896 69.1581 98.8659L70.3372 97.6347C70.58 97.9815 70.7996 98.259 70.9962 98.4671C71.2043 98.6752 71.4008 98.837 71.5858 98.9526C71.7707 99.0682 71.9557 99.1491 72.1407 99.1954C72.3256 99.2301 72.5222 99.2474 72.7302 99.2474C73.1464 99.2474 73.5106 99.1549 73.8227 98.97C74.1348 98.7734 74.3776 98.5075 74.551 98.1723C74.7244 97.837 74.8111 97.4555 74.8111 97.0278V90.4903H72.5915V88.7563H78.5567V90.4903H76.6839V97.2012C76.6839 97.7561 76.5857 98.2705 76.3891 98.7445C76.2042 99.2069 75.9325 99.6116 75.5741 99.9584C75.2273 100.305 74.8111 100.577 74.3256 100.773C73.8516 100.97 73.3198 101.068 72.7302 101.068ZM83.8941 101.068C83.004 101.068 82.2063 100.866 81.5011 100.461C80.8075 100.045 80.2584 99.4844 79.8538 98.7792C79.4491 98.0625 79.2468 97.2474 79.2468 96.3342C79.2468 95.4209 79.4491 94.6117 79.8538 93.9065C80.2584 93.1897 80.8075 92.629 81.5011 92.2244C82.2063 91.8082 83.004 91.6001 83.8941 91.6001C84.7727 91.6001 85.5588 91.8082 86.2525 92.2244C86.9577 92.629 87.5126 93.1897 87.9172 93.9065C88.3218 94.6117 88.5241 95.4209 88.5241 96.3342C88.5241 97.2474 88.3218 98.0625 87.9172 98.7792C87.5126 99.4844 86.9577 100.045 86.2525 100.461C85.5588 100.866 84.7727 101.068 83.8941 101.068ZM83.8941 99.4382C84.4375 99.4382 84.923 99.3052 85.3508 99.0393C85.7785 98.7619 86.1138 98.3919 86.3565 97.9295C86.5993 97.4555 86.7149 96.9238 86.7033 96.3342C86.7149 95.733 86.5993 95.2012 86.3565 94.7388C86.1138 94.2648 85.7785 93.8949 85.3508 93.629C84.923 93.3631 84.4375 93.2302 83.8941 93.2302C83.3508 93.2302 82.8595 93.3689 82.4202 93.6464C81.9924 93.9122 81.6572 94.2822 81.4144 94.7562C81.1716 95.2186 81.056 95.7446 81.0676 96.3342C81.056 96.9238 81.1716 97.4555 81.4144 97.9295C81.6572 98.3919 81.9924 98.7619 82.4202 99.0393C82.8595 99.3052 83.3508 99.4382 83.8941 99.4382ZM94.7188 101.068C93.7824 101.068 92.9501 100.872 92.2218 100.479C91.505 100.074 90.9385 99.5249 90.5224 98.8312C90.1177 98.1376 89.9154 97.3399 89.9154 96.4382C89.9154 95.7215 90.031 95.0683 90.2622 94.4787C90.4935 93.8891 90.8114 93.3805 91.216 92.9527C91.6322 92.5134 92.1235 92.1782 92.6899 91.947C93.268 91.7042 93.8922 91.5828 94.5627 91.5828C95.1523 91.5828 95.7015 91.6984 96.2101 91.9296C96.7188 92.1493 97.1581 92.4556 97.528 92.8487C97.9095 93.2417 98.1985 93.7099 98.395 94.2533C98.6031 94.7851 98.7014 95.3689 98.6898 96.0047L98.6725 96.7677H91.2333L90.8345 95.3457H97.1292L96.8691 95.6405V95.2244C96.8344 94.8429 96.7072 94.5018 96.4876 94.2013C96.2679 93.9007 95.9905 93.6637 95.6552 93.4903C95.32 93.3169 94.9558 93.2302 94.5627 93.2302C93.9385 93.2302 93.4125 93.3516 92.9847 93.5943C92.557 93.8255 92.2333 94.1724 92.0137 94.6348C91.794 95.0856 91.6842 95.6463 91.6842 96.3168C91.6842 96.9527 91.8171 97.5076 92.083 97.9815C92.3489 98.444 92.7246 98.8023 93.2102 99.0567C93.6957 99.311 94.2564 99.4382 94.8922 99.4382C95.3431 99.4382 95.7593 99.363 96.1408 99.2127C96.5338 99.0624 96.9558 98.7908 97.4066 98.3977L98.3083 99.6636C98.0309 99.941 97.6899 100.184 97.2852 100.392C96.8922 100.6 96.4702 100.768 96.0194 100.895C95.5801 101.01 95.1466 101.068 94.7188 101.068ZM100.666 100.895V88.0626H102.452V100.895H100.666ZM111.855 97.2185L111.751 95.1203L118.115 88.7563H120.577L111.855 97.2185ZM110.294 100.895V88.7563H112.167V100.895H110.294ZM118.34 100.895L113.693 94.6868L115.08 93.4903L120.681 100.895H118.34ZM126.013 101.068C125.077 101.068 124.245 100.872 123.516 100.479C122.8 100.074 122.233 99.5249 121.817 98.8312C121.412 98.1376 121.21 97.3399 121.21 96.4382C121.21 95.7215 121.326 95.0683 121.557 94.4787C121.788 93.8891 122.106 93.3805 122.511 92.9527C122.927 92.5134 123.418 92.1782 123.985 91.947C124.563 91.7042 125.187 91.5828 125.857 91.5828C126.447 91.5828 126.996 91.6984 127.505 91.9296C128.013 92.1493 128.453 92.4556 128.823 92.8487C129.204 93.2417 129.493 93.7099 129.69 94.2533C129.898 94.7851 129.996 95.3689 129.984 96.0047L129.967 96.7677H122.528L122.129 95.3457H128.424L128.164 95.6405V95.2244C128.129 94.8429 128.002 94.5018 127.782 94.2013C127.562 93.9007 127.285 93.6637 126.95 93.4903C126.615 93.3169 126.25 93.2302 125.857 93.2302C125.233 93.2302 124.707 93.3516 124.279 93.5943C123.852 93.8255 123.528 94.1724 123.308 94.6348C123.089 95.0856 122.979 95.6463 122.979 96.3168C122.979 96.9527 123.112 97.5076 123.378 97.9815C123.643 98.444 124.019 98.8023 124.505 99.0567C124.99 99.311 125.551 99.4382 126.187 99.4382C126.638 99.4382 127.054 99.363 127.435 99.2127C127.828 99.0624 128.25 98.7908 128.701 98.3977L129.603 99.6636C129.325 99.941 128.984 100.184 128.58 100.392C128.187 100.6 127.765 100.768 127.314 100.895C126.875 101.01 126.441 101.068 126.013 101.068ZM131.925 100.895V91.7909H133.712V93.6637L133.399 93.8718C133.515 93.4672 133.74 93.0972 134.076 92.762C134.411 92.4152 134.81 92.1377 135.272 91.9296C135.735 91.71 136.209 91.6001 136.694 91.6001C137.388 91.6001 137.966 91.7389 138.428 92.0163C138.891 92.2822 139.237 92.6926 139.469 93.2475C139.7 93.8024 139.816 94.5018 139.816 95.3457V100.895H138.029V95.4671C138.029 94.9469 137.96 94.5192 137.821 94.1839C137.683 93.8371 137.469 93.5886 137.18 93.4383C136.891 93.2764 136.532 93.2071 136.105 93.2302C135.758 93.2302 135.44 93.288 135.151 93.4036C134.862 93.5076 134.608 93.6579 134.388 93.8544C134.18 94.051 134.012 94.2822 133.885 94.5481C133.769 94.8024 133.712 95.0799 133.712 95.3804V100.895H132.827C132.677 100.895 132.527 100.895 132.376 100.895C132.226 100.895 132.076 100.895 131.925 100.895ZM142.273 100.895V88.0626H144.059V100.895H142.273ZM150.67 101.068C149.733 101.068 148.901 100.872 148.173 100.479C147.456 100.074 146.889 99.5249 146.473 98.8312C146.069 98.1376 145.866 97.3399 145.866 96.4382C145.866 95.7215 145.982 95.0683 146.213 94.4787C146.444 93.8891 146.762 93.3805 147.167 92.9527C147.583 92.5134 148.074 92.1782 148.641 91.947C149.219 91.7042 149.843 91.5828 150.514 91.5828C151.103 91.5828 151.652 91.6984 152.161 91.9296C152.67 92.1493 153.109 92.4556 153.479 92.8487C153.86 93.2417 154.149 93.7099 154.346 94.2533C154.554 94.7851 154.652 95.3689 154.641 96.0047L154.623 96.7677H147.184L146.785 95.3457H153.08L152.82 95.6405V95.2244C152.785 94.8429 152.658 94.5018 152.438 94.2013C152.219 93.9007 151.941 93.6637 151.606 93.4903C151.271 93.3169 150.907 93.2302 150.514 93.2302C149.889 93.2302 149.363 93.3516 148.936 93.5943C148.508 93.8255 148.184 94.1724 147.965 94.6348C147.745 95.0856 147.635 95.6463 147.635 96.3168C147.635 96.9527 147.768 97.5076 148.034 97.9815C148.3 98.444 148.676 98.8023 149.161 99.0567C149.647 99.311 150.207 99.4382 150.843 99.4382C151.294 99.4382 151.71 99.363 152.092 99.2127C152.485 99.0624 152.907 98.7908 153.358 98.3977L154.259 99.6636C153.982 99.941 153.641 100.184 153.236 100.392C152.843 100.6 152.421 100.768 151.97 100.895C151.531 101.01 151.097 101.068 150.67 101.068ZM157.938 104.883L159.777 100.635L159.794 102.057L155.251 91.7909H157.332L160.175 98.4844C160.233 98.6 160.303 98.7792 160.384 99.022C160.464 99.2532 160.534 99.4844 160.592 99.7156L160.141 99.8197C160.233 99.5769 160.32 99.3341 160.401 99.0913C160.493 98.8486 160.58 98.6058 160.661 98.363L163.037 91.7909H165.152L161.407 100.895L159.863 104.883H157.938Z" fill="white"/>
<path d="M349.592 94.1712V91.7157H356.022V94.1712H349.592ZM363.681 99.1029C362.433 99.1029 361.337 98.874 360.393 98.4162C359.45 97.9584 358.645 97.2856 357.98 96.3977L359.582 94.296C360.289 95.2116 360.976 95.8497 361.642 96.2104C362.308 96.5711 363.057 96.7515 363.889 96.7515C364.361 96.7515 364.791 96.6821 365.179 96.5434C365.568 96.3908 365.873 96.1896 366.095 95.9399C366.317 95.6763 366.428 95.3781 366.428 95.0451C366.428 94.8093 366.379 94.5943 366.282 94.4001C366.199 94.192 366.067 94.0116 365.887 93.859C365.707 93.6926 365.485 93.54 365.221 93.4012C364.957 93.2625 364.659 93.1446 364.326 93.0475C363.993 92.9504 363.626 92.8602 363.223 92.777C362.197 92.5689 361.344 92.2706 360.664 91.8822C359.998 91.4799 359.499 90.9805 359.166 90.3839C358.833 89.7874 358.666 89.0869 358.666 88.2823C358.666 87.6719 358.798 87.11 359.062 86.5967C359.339 86.0835 359.714 85.6395 360.185 85.265C360.657 84.8904 361.205 84.5991 361.829 84.391C362.453 84.1829 363.126 84.0789 363.848 84.0789C364.985 84.0789 365.991 84.287 366.865 84.7031C367.739 85.1054 368.46 85.7089 369.029 86.5135L367.489 88.3863C367.018 87.7482 366.47 87.2696 365.845 86.9505C365.235 86.6175 364.569 86.4511 363.848 86.4511C363.348 86.4511 362.911 86.5204 362.537 86.6592C362.176 86.7979 361.892 86.999 361.684 87.2626C361.475 87.5123 361.371 87.8175 361.371 88.1782C361.371 88.4557 361.434 88.7054 361.559 88.9273C361.684 89.1354 361.857 89.3227 362.079 89.4892C362.315 89.6556 362.613 89.8013 362.974 89.9262C363.334 90.051 363.744 90.162 364.201 90.2591C364.964 90.4117 365.651 90.6198 366.262 90.8834C366.872 91.1331 367.392 91.4383 367.822 91.799C368.252 92.1458 368.578 92.5481 368.8 93.0059C369.022 93.4498 369.133 93.9492 369.133 94.5041C369.133 95.4613 368.904 96.2867 368.446 96.9804C368.003 97.6601 367.371 98.1873 366.553 98.5618C365.734 98.9225 364.777 99.1029 363.681 99.1029ZM362.433 100.788L362.516 91.2579L364.41 91.9446L364.493 100.788H362.433ZM365.138 91.9446L363.244 91.2579L363.161 82.5806H365.221L365.138 91.9446ZM376.144 98.8948C375.409 98.8948 374.722 98.763 374.084 98.4994C373.46 98.2358 372.912 97.8751 372.44 97.4173C371.982 96.9457 371.622 96.3977 371.358 95.7734C371.095 95.1492 370.963 94.4625 370.963 93.7134C370.963 93.2972 371.011 92.8533 371.109 92.3816C371.219 91.9099 371.379 91.4105 371.587 90.8834C371.809 90.3423 372.066 89.7805 372.357 89.1978C372.648 88.6152 372.988 88.0048 373.377 87.3667L375.312 84.0789H377.892L377.975 84.287L375.499 88.3655C375.097 89.0314 374.743 89.6626 374.438 90.2591C374.133 90.8417 373.869 91.4036 373.647 91.9446C373.439 92.4718 373.266 92.9851 373.127 93.4845L372.565 91.5909C372.773 91.1469 373.03 90.7446 373.335 90.3839C373.64 90.0233 373.98 89.7181 374.355 89.4684C374.729 89.2187 375.118 89.0314 375.52 88.9065C375.936 88.7817 376.359 88.7192 376.789 88.7192C377.594 88.7192 378.336 88.9412 379.016 89.3851C379.696 89.8152 380.237 90.3909 380.639 91.1123C381.055 91.8336 381.263 92.6244 381.263 93.4845C381.263 94.5249 381.041 95.4544 380.597 96.2729C380.167 97.0775 379.564 97.7156 378.787 98.1873C378.01 98.6589 377.129 98.8948 376.144 98.8948ZM376.165 96.5226C376.664 96.5226 377.108 96.4046 377.497 96.1688C377.899 95.933 378.211 95.607 378.433 95.1908C378.655 94.7607 378.766 94.2683 378.766 93.7134C378.766 93.2417 378.648 92.8047 378.412 92.4024C378.19 91.9862 377.885 91.6533 377.497 91.4036C377.108 91.14 376.671 91.0082 376.186 91.0082C375.659 91.0082 375.187 91.1331 374.771 91.3828C374.369 91.6186 374.05 91.9446 373.814 92.3608C373.592 92.7631 373.481 93.214 373.481 93.7134C373.481 94.2405 373.592 94.7191 373.814 95.1492C374.05 95.5654 374.369 95.8983 374.771 96.148C375.173 96.3977 375.638 96.5226 376.165 96.5226ZM388.014 98.9572C387.085 98.9572 386.232 98.7699 385.455 98.3954C384.692 98.0069 384.081 97.4936 383.624 96.8555C383.166 96.2035 382.937 95.4821 382.937 94.6914C382.937 94.2197 382.999 93.7827 383.124 93.3804C383.263 92.9781 383.457 92.6174 383.707 92.2984C383.97 91.9793 384.283 91.6949 384.643 91.4452C385.018 91.1816 385.441 90.9527 385.913 90.7585L385.746 91.3412C385.385 91.1886 385.052 91.0082 384.747 90.8001C384.456 90.592 384.199 90.3562 383.977 90.0926C383.769 89.8152 383.61 89.5238 383.499 89.2187C383.388 88.8996 383.332 88.5666 383.332 88.2198C383.332 87.4707 383.54 86.7979 383.957 86.2014C384.387 85.6048 384.955 85.1332 385.663 84.7864C386.37 84.4257 387.154 84.2453 388.014 84.2453C388.888 84.2453 389.679 84.4257 390.386 84.7864C391.094 85.1332 391.656 85.6048 392.072 86.2014C392.502 86.7979 392.717 87.4707 392.717 88.2198C392.717 88.5666 392.662 88.8996 392.551 89.2187C392.44 89.5238 392.28 89.8082 392.072 90.0718C391.878 90.3215 391.628 90.5574 391.323 90.7793C391.018 90.9874 390.664 91.1747 390.262 91.3412L390.158 90.8417C390.601 90.9943 391.004 91.1955 391.364 91.4452C391.725 91.6949 392.037 91.9862 392.301 92.3192C392.564 92.6521 392.766 93.0197 392.904 93.422C393.057 93.8243 393.133 94.2475 393.133 94.6914C393.133 95.496 392.904 96.2243 392.447 96.8763C391.989 97.5145 391.371 98.0208 390.595 98.3954C389.832 98.7699 388.971 98.9572 388.014 98.9572ZM388.014 96.6266C388.486 96.6266 388.909 96.5364 389.284 96.3561C389.658 96.1758 389.949 95.933 390.158 95.6278C390.38 95.3226 390.491 94.9688 390.491 94.5665C390.491 94.1365 390.38 93.7619 390.158 93.4429C389.949 93.1099 389.658 92.8533 389.284 92.6729C388.909 92.4787 388.486 92.3816 388.014 92.3816C387.556 92.3816 387.14 92.4787 386.766 92.6729C386.405 92.8533 386.114 93.1099 385.892 93.4429C385.67 93.7619 385.559 94.1365 385.559 94.5665C385.559 94.955 385.67 95.3018 385.892 95.607C386.114 95.9122 386.405 96.1619 386.766 96.3561C387.14 96.5364 387.556 96.6266 388.014 96.6266ZM388.014 90.0926C388.43 90.0926 388.798 90.0163 389.117 89.8637C389.45 89.7111 389.707 89.503 389.887 89.2395C390.067 88.9759 390.158 88.6707 390.158 88.3239C390.158 87.9632 390.067 87.6511 389.887 87.3875C389.707 87.11 389.45 86.895 389.117 86.7424C388.798 86.5759 388.43 86.4927 388.014 86.4927C387.612 86.4927 387.244 86.5759 386.911 86.7424C386.592 86.895 386.343 87.11 386.162 87.3875C385.982 87.6511 385.892 87.9632 385.892 88.3239C385.892 88.6707 385.982 88.9759 386.162 89.2395C386.343 89.503 386.592 89.7111 386.911 89.8637C387.244 90.0163 387.612 90.0926 388.014 90.0926ZM396.607 99.1237C396.108 99.1237 395.719 98.978 395.442 98.6867C395.178 98.3954 395.046 97.9861 395.046 97.459C395.046 96.9734 395.185 96.5781 395.463 96.2729C395.754 95.9538 396.135 95.7943 396.607 95.7943C397.106 95.7943 397.488 95.9399 397.752 96.2312C398.029 96.5087 398.168 96.9179 398.168 97.459C398.168 97.9445 398.022 98.3468 397.731 98.6659C397.453 98.9711 397.079 99.1237 396.607 99.1237ZM405.644 99.1029C404.465 99.1029 403.452 98.8046 402.606 98.2081C401.773 97.5977 401.128 96.7376 400.671 95.6278C400.227 94.5041 400.005 93.1654 400.005 91.6117C400.005 90.0579 400.227 88.7262 400.671 87.6164C401.128 86.4927 401.773 85.6326 402.606 85.0361C403.452 84.4257 404.465 84.1205 405.644 84.1205C406.823 84.1205 407.836 84.4257 408.682 85.0361C409.528 85.6326 410.173 86.4927 410.617 87.6164C411.075 88.7262 411.304 90.0579 411.304 91.6117C411.304 93.1654 411.075 94.5041 410.617 95.6278C410.173 96.7376 409.528 97.5977 408.682 98.2081C407.836 98.8046 406.823 99.1029 405.644 99.1029ZM405.644 96.7307C406.615 96.7307 407.364 96.2867 407.891 95.3989C408.432 94.4972 408.703 93.2348 408.703 91.6117C408.703 89.9747 408.432 88.7054 407.891 87.8036C407.364 86.9019 406.615 86.4511 405.644 86.4511C404.673 86.4511 403.917 86.9019 403.376 87.8036C402.849 88.7054 402.585 89.9747 402.585 91.6117C402.585 93.2348 402.849 94.4972 403.376 95.3989C403.917 96.2867 404.673 96.7307 405.644 96.7307ZM418.771 99.1029C417.592 99.1029 416.58 98.8046 415.733 98.2081C414.901 97.5977 414.256 96.7376 413.798 95.6278C413.354 94.5041 413.132 93.1654 413.132 91.6117C413.132 90.0579 413.354 88.7262 413.798 87.6164C414.256 86.4927 414.901 85.6326 415.733 85.0361C416.58 84.4257 417.592 84.1205 418.771 84.1205C419.951 84.1205 420.963 84.4257 421.809 85.0361C422.656 85.6326 423.301 86.4927 423.745 87.6164C424.202 88.7262 424.431 90.0579 424.431 91.6117C424.431 93.1654 424.202 94.5041 423.745 95.6278C423.301 96.7376 422.656 97.5977 421.809 98.2081C420.963 98.8046 419.951 99.1029 418.771 99.1029ZM418.771 96.7307C419.742 96.7307 420.492 96.2867 421.019 95.3989C421.56 94.4972 421.83 93.2348 421.83 91.6117C421.83 89.9747 421.56 88.7054 421.019 87.8036C420.492 86.9019 419.742 86.4511 418.771 86.4511C417.8 86.4511 417.044 86.9019 416.503 87.8036C415.976 88.7054 415.712 89.9747 415.712 91.6117C415.712 93.2348 415.976 94.4972 416.503 95.3989C417.044 96.2867 417.8 96.7307 418.771 96.7307Z" fill="white"/>
</svg>
