<svg width="326" height="44" viewBox="0 0 326 44" fill="none" xmlns="http://www.w3.org/2000/svg">
<line x1="0.333984" y1="21.5" x2="125.001" y2="21.5" stroke="#262626"/>
<path d="M145.844 20.9208L145.844 20.9208L145.843 20.9236C144.972 23.4971 144.533 25.987 144.533 28.3911V35.537C144.533 36.3654 145.205 37.037 146.033 37.037H155.23C156.059 37.037 156.73 36.3654 156.73 35.537L156.73 28.3113L156.73 28.3071C156.705 25.276 157.188 22.5195 158.172 20.0311C159.077 17.7771 160.172 15.605 161.457 13.5145C161.881 12.8257 161.699 11.9125 161.014 11.4563L155.922 8.06345L155.922 8.06345C155.374 7.69778 154.636 7.7272 154.128 8.17695C152.424 9.686 150.874 11.4878 149.477 13.5786L149.477 13.5797C147.95 15.8776 146.739 18.3249 145.844 20.9208ZM165.555 20.9208L165.554 20.9236C164.684 23.4971 164.245 25.987 164.245 28.3911V35.537C164.245 36.3654 164.916 37.037 165.745 37.037H174.942C175.77 37.037 176.442 36.3654 176.442 35.537L176.442 28.3113L176.442 28.3071C176.417 25.2761 176.9 22.5197 177.884 20.0314C178.789 17.7773 179.884 15.6051 181.169 13.5145C181.593 12.8257 181.41 11.9125 180.726 11.4563L175.634 8.06345L175.634 8.06345C175.085 7.69778 174.348 7.7272 173.84 8.17695L174.171 8.55131L173.84 8.17695C172.135 9.686 170.586 11.4878 169.189 13.5786L169.188 13.5797C167.662 15.8776 166.45 18.3249 165.555 20.9208Z" fill="url(#paint0_linear_108_2660)" stroke="#CAFF33"/>
<line x1="201" y1="21.5" x2="325.667" y2="21.5" stroke="#262626"/>
<defs>
<linearGradient id="paint0_linear_108_2660" x1="163.151" y1="8.06641" x2="163.151" y2="36.537" gradientUnits="userSpaceOnUse">
<stop stop-color="#CAFF33"/>
<stop offset="1" stop-color="#191919"/>
</linearGradient>
</defs>
</svg>
